<?xml version="1.0" encoding="UTF-8"?>
<svg version="1.1" xmlns="http://www.w3.org/2000/svg" width="100" height="100">
<path d="M0 0 C33 0 66 0 100 0 C100 33 100 66 100 100 C67 100 34 100 0 100 C0 67 0 34 0 0 Z " fill="#0C2031" transform="translate(0,0)"/>
<path d="M0 0 C33 0 66 0 100 0 C100 33 100 66 100 100 C67 100 34 100 0 100 C0 67 0 34 0 0 Z M23.625 7.0625 C20.7956531 10.22867392 20.19410437 11.82675598 20 16 C18.6078125 16.1546875 18.6078125 16.1546875 17.1875 16.3125 C13.83407975 17.03578672 12.97461669 17.32016307 11 20 C10.63786432 22.51289675 10.63786432 22.51289675 10.8125 25.1875 C10.83957031 26.08855469 10.86664062 26.98960938 10.89453125 27.91796875 C10.92933594 28.60503906 10.96414062 29.29210937 11 30 C9.02 30.99 9.02 30.99 7 32 C6.94610913 33.95803507 6.90725783 35.91648909 6.875 37.875 C6.85179687 38.96554688 6.82859375 40.05609375 6.8046875 41.1796875 C6.69939466 44.1371051 6.69939466 44.1371051 9 46 C12.12814514 46.24360073 12.12814514 46.24360073 15.625 46.125 C16.81351563 46.10695312 18.00203125 46.08890625 19.2265625 46.0703125 C20.59941406 46.03550781 20.59941406 46.03550781 22 46 C22 46.66 22 47.32 22 48 C21.01257812 47.97679687 20.02515625 47.95359375 19.0078125 47.9296875 C17.08582031 47.90261719 17.08582031 47.90261719 15.125 47.875 C13.21074219 47.84019531 13.21074219 47.84019531 11.2578125 47.8046875 C7.91406662 47.64358476 7.91406662 47.64358476 6 50 C5.7178518 53.32259247 5.7178518 53.32259247 5.8125 57.0625 C5.81894531 58.33222656 5.82539062 59.60195313 5.83203125 60.91015625 C5.64811502 63.87067553 5.64811502 63.87067553 7 65 C9.35313555 65.07271741 11.70833668 65.08370868 14.0625 65.0625 C15.35285156 65.05347656 16.64320312 65.04445312 17.97265625 65.03515625 C19.47119141 65.01775391 19.47119141 65.01775391 21 65 C21 65.99 21 66.98 21 68 C20.38511719 67.96519531 19.77023438 67.93039063 19.13671875 67.89453125 C17.92435547 67.85392578 17.92435547 67.85392578 16.6875 67.8125 C15.88699219 67.77769531 15.08648437 67.74289063 14.26171875 67.70703125 C11.94410127 67.82071752 11.94410127 67.82071752 10.2421875 69.30078125 C8.08925361 72.24583233 8.4559987 74.49421383 9 78 C11.85484289 81.12040967 13.61113838 82.84903678 17.875 83.3125 C18.57625 83.209375 19.2775 83.10625 20 83 C20.0825 83.7425 20.165 84.485 20.25 85.25 C21.20289291 88.74394068 22.05932443 89.86801021 25 92 C32.57895875 94.28340424 40.03012626 94.27574873 47.86865234 94.20581055 C50.02322968 94.18730043 52.17738188 94.18530308 54.33203125 94.18554688 C60.64883468 94.80233191 60.64883468 94.80233191 66 93 C67.43431642 92.73233852 68.87258063 92.48566602 70.3125 92.25 C73.82031073 91.50710378 74.86783339 91.12571946 77.5625 88.5625 C79.24462549 86.05362262 79.24462549 86.05362262 79 83 C79.886875 83.0825 80.77375 83.165 81.6875 83.25 C85.73101869 82.94482878 87.20614118 81.87603114 90 79 C90 78.01 90 77.02 90 76 C89.484375 76.28875 88.96875 76.5775 88.4375 76.875 C85.37643275 78.28780027 82.25055082 79.1248517 79 80 C79 78.02 79 76.04 79 74 C79.91523437 74.02320312 80.83046875 74.04640625 81.7734375 74.0703125 C82.96195312 74.08835937 84.15046875 74.10640625 85.375 74.125 C87.15003906 74.15980469 87.15003906 74.15980469 88.9609375 74.1953125 C92.11153817 74.32866229 92.11153817 74.32866229 94 72 C94.30903289 70.09771695 94.30903289 70.09771695 94.265625 67.9375 C94.26820312 67.14085937 94.27078125 66.34421875 94.2734375 65.5234375 C94.26183594 64.27433594 94.26183594 64.27433594 94.25 63 C94.25773437 62.16726562 94.26546875 61.33453125 94.2734375 60.4765625 C94.27085938 59.67992187 94.26828125 58.88328125 94.265625 58.0625 C94.26224121 56.96615234 94.26224121 56.96615234 94.25878906 55.84765625 C94.15448561 53.75302636 94.15448561 53.75302636 92 52 C88.41446523 50.64546464 84.81974396 49.41294529 81 49 C80.01 49.66 79.02 50.32 78 51 C77.67 49.35 77.34 47.7 77 46 C78.485 46.99 78.485 46.99 80 48 C82.86932163 48.35554057 82.86932163 48.35554057 86 48.3125 C87.051875 48.32925781 88.10375 48.34601562 89.1875 48.36328125 C91.9812685 48.21934617 91.9812685 48.21934617 93.8515625 46.73046875 C95.22773606 44.65684669 95.40311936 43.47450384 95.375 41 C95.38273437 40.319375 95.39046875 39.63875 95.3984375 38.9375 C94.86227433 36.33027518 94.20790112 35.49507769 92 34 C89.02807238 33.63680691 89.02807238 33.63680691 85.8125 33.8125 C84.18248047 33.85310547 84.18248047 33.85310547 82.51953125 33.89453125 C81.68808594 33.92933594 80.85664062 33.96414062 80 34 C79.01 32.02 79.01 32.02 78 30 C78.61488281 30.03480469 79.22976562 30.06960937 79.86328125 30.10546875 C80.67152344 30.13253906 81.47976562 30.15960937 82.3125 30.1875 C83.11300781 30.22230469 83.91351563 30.25710937 84.73828125 30.29296875 C87.05547105 30.17850104 87.05547105 30.17850104 88.76171875 28.703125 C90.87329259 25.79887833 90.48410163 23.44922409 90 20 C87.28086874 16.8809965 85.82626618 16.06235971 81.6875 15.75 C80.3571875 15.87375 80.3571875 15.87375 79 16 C78.9175 15.0925 78.835 14.185 78.75 13.25 C77.86413506 9.41125191 77.30415704 8.14770208 74 6 C69.76870632 5.30774791 66.24595936 5.33143644 62.4375 7.375 C60.77914204 8.88807063 60.77914204 8.88807063 61 11 C60.43152344 10.79503906 59.86304688 10.59007812 59.27734375 10.37890625 C54.4915546 8.70907331 50.04056799 7.53623064 45 7 C45 7.99 45 8.98 45 10 C41.75 10.25 41.75 10.25 38 10 C36.64567325 8.68799596 35.31266518 7.35368596 34 6 C29.40798012 4.55436411 27.77740586 4.52491864 23.625 7.0625 Z " fill="#FAFCFD" transform="translate(0,0)"/>
<path d="M0 0 C3.375 1.0625 3.375 1.0625 5.375 3.125 C7.36182721 5.46746603 7.36182721 5.46746603 11.125 5.3125 C12.1975 5.23 13.27 5.1475 14.375 5.0625 C14.375 4.0725 14.375 3.0825 14.375 2.0625 C20.02520618 2.66358576 25.03664461 4.13778683 30.375 6.0625 C30.66375 5.423125 30.9525 4.78375 31.25 4.125 C32.375 2.0625 32.375 2.0625 34.375 1.0625 C38.12840244 0.47994834 41.85678657 -0.00651726 45.078125 2.26171875 C47.79271523 5.35853576 48.375 6.90002665 48.375 11.0625 C49.261875 10.98 50.14875 10.8975 51.0625 10.8125 C55.20126618 11.12485971 56.65586874 11.9434965 59.375 15.0625 C60.19849121 20.92987487 60.19849121 20.92987487 58.13671875 23.765625 C55.84876608 25.44988284 54.49628458 25.37212107 51.6875 25.25 C50.87925781 25.22292969 50.07101563 25.19585938 49.23828125 25.16796875 C48.62339844 25.13316406 48.00851563 25.09835938 47.375 25.0625 C48.365 27.0425 48.365 27.0425 49.375 29.0625 C50.20644531 29.02769531 51.03789063 28.99289063 51.89453125 28.95703125 C53.52455078 28.91642578 53.52455078 28.91642578 55.1875 28.875 C56.26644531 28.84019531 57.34539062 28.80539063 58.45703125 28.76953125 C61.375 29.0625 61.375 29.0625 63.23828125 30.32421875 C64.59693842 32.40189037 64.77805641 33.59353608 64.75 36.0625 C64.76160156 37.0834375 64.76160156 37.0834375 64.7734375 38.125 C64.23879984 40.72480667 63.56604589 41.5602006 61.375 43.0625 C58.5625 43.42578125 58.5625 43.42578125 55.375 43.375 C53.7971875 43.36919922 53.7971875 43.36919922 52.1875 43.36328125 C49.375 43.0625 49.375 43.0625 46.375 41.0625 C46.87 43.5375 46.87 43.5375 47.375 46.0625 C48.365 45.4025 49.355 44.7425 50.375 44.0625 C54.46363991 44.40321999 60.42288869 46.11038869 63.375 49.0625 C63.50167764 52.05268161 63.56020838 55.00944108 63.5625 58 C63.57474609 58.83724609 63.58699219 59.67449219 63.59960938 60.53710938 C63.60154297 61.33826172 63.60347656 62.13941406 63.60546875 62.96484375 C63.60957764 63.70210693 63.61368652 64.43937012 63.61791992 65.19897461 C63.375 67.0625 63.375 67.0625 61.375 69.0625 C58.3359375 69.2578125 58.3359375 69.2578125 54.75 69.1875 C53.56148438 69.16945313 52.37296875 69.15140625 51.1484375 69.1328125 C50.23320313 69.10960938 49.31796875 69.08640625 48.375 69.0625 C48.375 71.0425 48.375 73.0225 48.375 75.0625 C52.24148272 74.02152388 55.86961443 73.02551592 59.375 71.0625 C59.01302104 73.68684747 58.54843943 74.88263689 56.6875 76.8125 C53.77072708 78.38913401 51.64209987 78.28525681 48.375 78.0625 C48.313125 78.805 48.25125 79.5475 48.1875 80.3125 C47.08913435 84.03004528 45.66291299 85.06116166 42.375 87.0625 C38.625 87.75 38.625 87.75 35.375 88.0625 C35.045 88.3925 34.715 88.7225 34.375 89.0625 C30.10346986 89.28281557 25.82596464 89.24828663 21.54931641 89.24780273 C19.41157328 89.24996304 17.27436862 89.26803649 15.13671875 89.28710938 C-2.6582601 89.36323707 -2.6582601 89.36323707 -8.6875 84.6875 C-10.625 82.0625 -10.625 82.0625 -10.625 78.0625 C-11.718125 77.959375 -12.81125 77.85625 -13.9375 77.75 C-17.625 77.0625 -17.625 77.0625 -19.5625 75.9375 C-21.20920065 73.03155769 -20.80962917 70.32428195 -20.625 67.0625 C-20.25375 67.92875 -20.25375 67.92875 -19.875 68.8125 C-18.01763106 72.15576408 -16.06742241 74.58169253 -12.375 75.8125 C-11.7975 75.895 -11.22 75.9775 -10.625 76.0625 C-10.66625 74.94875 -10.7075 73.835 -10.75 72.6875 C-10.625 69.0625 -10.625 69.0625 -8.625 67.0625 C-8.46 67.805 -8.295 68.5475 -8.125 69.3125 C-5.94825258 73.3032036 -2.708477 74.36263399 1.375 76.0625 C1.705 74.0825 2.035 72.1025 2.375 70.0625 C2.705 70.0625 3.035 70.0625 3.375 70.0625 C3.375 75.3425 3.375 80.6225 3.375 86.0625 C13.605 86.0625 23.835 86.0625 34.375 86.0625 C33.715 79.1325 33.055 72.2025 32.375 65.0625 C30.065 64.4025 27.755 63.7425 25.375 63.0625 C23.9375 60.9375 23.9375 60.9375 23.375 59.0625 C20.735 59.0625 18.095 59.0625 15.375 59.0625 C15.375 58.7325 15.375 58.4025 15.375 58.0625 C18.015 58.0625 20.655 58.0625 23.375 58.0625 C23.705 57.0725 24.035 56.0825 24.375 55.0625 C26 54.5625 26 54.5625 28.375 54.0625 C30.1075 53.2890625 30.1075 53.2890625 31.875 52.5 C35.375 51.0625 35.375 51.0625 39.375 51.0625 C39.375 50.4025 39.375 49.7425 39.375 49.0625 C38.385 48.5675 38.385 48.5675 37.375 48.0625 C38.11556641 47.12277344 38.11556641 47.12277344 38.87109375 46.1640625 C39.51175781 45.34679688 40.15242188 44.52953125 40.8125 43.6875 C41.76962891 42.46933594 41.76962891 42.46933594 42.74609375 41.2265625 C45.01272687 38.21525615 45.77869641 36.13885581 45.72265625 32.328125 C44.59626687 24.98760995 41.21692425 17.70608082 35.375 13.0625 C34.50875 12.258125 34.50875 12.258125 33.625 11.4375 C30.76291367 9.68844724 27.82783933 8.82111427 24.63671875 7.82421875 C21.73024819 6.84535561 19.0715722 5.51450042 16.375 4.0625 C16.87 6.0425 16.87 6.0425 17.375 8.0625 C16.075625 8.10375 14.77625 8.145 13.4375 8.1875 C7.54553104 8.94358991 3.4817391 10.69601842 -0.625 15.0625 C-4.13542777 20.44758528 -6.89023658 26.25678475 -9.625 32.0625 C-9.955 30.7425 -10.285 29.4225 -10.625 28.0625 C-13.925 28.0625 -17.225 28.0625 -20.625 28.0625 C-17.625 25.0625 -17.625 25.0625 -15.36328125 24.76953125 C-14.56277344 24.80433594 -13.76226562 24.83914062 -12.9375 24.875 C-12.12925781 24.90207031 -11.32101563 24.92914062 -10.48828125 24.95703125 C-9.87339844 24.99183594 -9.25851563 25.02664062 -8.625 25.0625 C-7.60812954 20.28487362 -7.60812954 20.28487362 -8.5625 15.625 C-8.913125 15.109375 -9.26375 14.59375 -9.625 14.0625 C-11.935 14.3925 -14.245 14.7225 -16.625 15.0625 C-16.625 15.7225 -16.625 16.3825 -16.625 17.0625 C-17.615 17.0625 -18.605 17.0625 -19.625 17.0625 C-18.25516497 13.90134224 -17.6359362 13.0697908 -14.625 11.0625 C-13.305 11.0625 -11.985 11.0625 -10.625 11.0625 C-10.58375 10.175625 -10.5425 9.28875 -10.5 8.375 C-9.01516269 2.75383017 -5.82087989 0.10036 0 0 Z " fill="#152233" transform="translate(30.625,4.9375)"/>
<path d="M0 0 C2 0.66666667 4 1.33333333 6 2 C6.7115625 2.20625 7.423125 2.4125 8.15625 2.625 C17.31593534 5.38545312 22.10001975 9.14646894 26.77734375 17.578125 C29.41955703 22.8119021 30.63170499 27.10408677 30 33 C25.91661574 40.85266203 20.47433984 44.18588367 12.3671875 46.8125 C9.23182025 47.06084592 8.38135928 45.93753881 6 44 C3.13500163 43.43909821 0.97442801 43.71672114 -2 44 C-3.66710346 45.49985609 -3.66710346 45.49985609 -5 47 C-11.56956077 46.2184488 -17.96665756 43.08293616 -22.5625 38.375 C-25.18484388 34.04243186 -25.89782018 29.94549284 -25 25 C-21.47190464 15.56664747 -17.24224008 8.62112004 -8 4 C-6.45976004 3.93049459 -4.91665012 3.91547643 -3.375 3.9375 C-2.14910156 3.95103516 -2.14910156 3.95103516 -0.8984375 3.96484375 C0.04128906 3.98224609 0.04128906 3.98224609 1 4 C0.67 2.68 0.34 1.36 0 0 Z " fill="#F6F8F8" transform="translate(47,9)"/>
<path d="M0 0 C0.7734375 -0.00773437 1.546875 -0.01546875 2.34375 -0.0234375 C4.99765366 0.46695774 5.69174623 1.44002224 7.5 3.375 C9.80988315 4.11886068 12.14315944 4.79690703 14.5 5.375 C14.67450733 6.81156925 14.83896392 8.24935835 15 9.6875 C15.0928125 10.48800781 15.185625 11.28851563 15.28125 12.11328125 C15.59939767 16.85709022 15.5 21.62053458 15.5 26.375 C5.27 26.375 -4.96 26.375 -15.5 26.375 C-15.5 11.75 -15.5 11.75 -14.5 5.375 C-13.406875 5.106875 -12.31375 4.83875 -11.1875 4.5625 C-7.60411917 3.73830303 -7.60411917 3.73830303 -6.05078125 1.82421875 C-3.99417119 -0.09770149 -2.77552489 -0.02775525 0 0 Z " fill="#F95568" transform="translate(49.5,64.625)"/>
<path d="M0 0 C3.375 1.0625 3.375 1.0625 5.375 3.125 C7.36182721 5.46746603 7.36182721 5.46746603 11.125 5.3125 C12.1975 5.23 13.27 5.1475 14.375 5.0625 C14.375 4.0725 14.375 3.0825 14.375 2.0625 C20.02520618 2.66358576 25.03664461 4.13778683 30.375 6.0625 C30.66375 5.423125 30.9525 4.78375 31.25 4.125 C32.375 2.0625 32.375 2.0625 34.375 1.0625 C38.12840244 0.47994834 41.85678657 -0.00651726 45.078125 2.26171875 C47.79271523 5.35853576 48.375 6.90002665 48.375 11.0625 C50.025 11.0625 51.675 11.0625 53.375 11.0625 C53.375 11.7225 53.375 12.3825 53.375 13.0625 C51.395 13.0625 49.415 13.0625 47.375 13.0625 C47.271875 13.701875 47.16875 14.34125 47.0625 15 C46.835625 15.680625 46.60875 16.36125 46.375 17.0625 C44.89 17.5575 44.89 17.5575 43.375 18.0625 C42.88 19.5475 42.88 19.5475 42.375 21.0625 C41.323125 19.45375 41.323125 19.45375 40.25 17.8125 C36.10522657 12.07002061 31.16131661 9.81998244 24.56640625 7.7890625 C21.67997409 6.8320636 19.04814519 5.50188587 16.375 4.0625 C16.87 6.0425 16.87 6.0425 17.375 8.0625 C16.075625 8.10375 14.77625 8.145 13.4375 8.1875 C7.54553104 8.94358991 3.4817391 10.69601842 -0.625 15.0625 C-4.13542777 20.44758528 -6.89023658 26.25678475 -9.625 32.0625 C-9.955 30.7425 -10.285 29.4225 -10.625 28.0625 C-13.925 28.0625 -17.225 28.0625 -20.625 28.0625 C-17.625 25.0625 -17.625 25.0625 -15.36328125 24.76953125 C-14.56277344 24.80433594 -13.76226562 24.83914062 -12.9375 24.875 C-12.12925781 24.90207031 -11.32101563 24.92914062 -10.48828125 24.95703125 C-9.87339844 24.99183594 -9.25851563 25.02664062 -8.625 25.0625 C-7.60812954 20.28487362 -7.60812954 20.28487362 -8.5625 15.625 C-8.913125 15.109375 -9.26375 14.59375 -9.625 14.0625 C-11.935 14.3925 -14.245 14.7225 -16.625 15.0625 C-16.625 15.7225 -16.625 16.3825 -16.625 17.0625 C-17.615 17.0625 -18.605 17.0625 -19.625 17.0625 C-18.25516497 13.90134224 -17.6359362 13.0697908 -14.625 11.0625 C-13.305 11.0625 -11.985 11.0625 -10.625 11.0625 C-10.58375 10.175625 -10.5425 9.28875 -10.5 8.375 C-9.01516269 2.75383017 -5.82087989 0.10036 0 0 Z " fill="#081B2C" transform="translate(30.625,4.9375)"/>
<path d="M0 0 C4.875 2.875 4.875 2.875 6 4 C6.46971808 10.34119413 6.46971808 10.34119413 4.77734375 12.71484375 C2.47802368 14.37742903 1.11904033 14.30952349 -1.6875 14.1875 C-2.89986328 14.14689453 -2.89986328 14.14689453 -4.13671875 14.10546875 C-4.75160156 14.07066406 -5.36648437 14.03585938 -6 14 C-5.34 15.32 -4.68 16.64 -4 18 C-3.16855469 17.96519531 -2.33710937 17.93039063 -1.48046875 17.89453125 C0.14955078 17.85392578 0.14955078 17.85392578 1.8125 17.8125 C2.89144531 17.77769531 3.97039062 17.74289063 5.08203125 17.70703125 C8 18 8 18 9.86328125 19.26171875 C11.22193842 21.33939037 11.40305641 22.53103608 11.375 25 C11.38273437 25.680625 11.39046875 26.36125 11.3984375 27.0625 C10.86379984 29.66230667 10.19104589 30.4977006 8 32 C5.1875 32.36328125 5.1875 32.36328125 2 32.3125 C0.4221875 32.30669922 0.4221875 32.30669922 -1.1875 32.30078125 C-4 32 -4 32 -7 30 C-7 31.98 -7 33.96 -7 36 C-7.33 36 -7.66 36 -8 36 C-9.125 28.25 -9.125 28.25 -8 26 C-7.56934678 20.72449806 -8.540272 16.84873073 -10.44140625 12.015625 C-11 10 -11 10 -10 7 C-9.01 6.34 -8.02 5.68 -7 5 C-6.67 4.01 -6.34 3.02 -6 2 C-4.02 2 -2.04 2 0 2 C0 1.34 0 0.68 0 0 Z " fill="#0D2534" transform="translate(84,16)"/>
<path d="M0 0 C6.51903114 2.51903114 6.51903114 2.51903114 8 4 C8.12667764 6.99018161 8.18520838 9.94694108 8.1875 12.9375 C8.19974609 13.77474609 8.21199219 14.61199219 8.22460938 15.47460938 C8.22750977 16.67633789 8.22750977 16.67633789 8.23046875 17.90234375 C8.23457764 18.63960693 8.23868652 19.37687012 8.24291992 20.13647461 C8 22 8 22 6 24 C3.03125 24.01171875 3.03125 24.01171875 -0.5 23.6875 C-1.6653125 23.58824219 -2.830625 23.48898438 -4.03125 23.38671875 C-7 23 -7 23 -9 22 C-9 17.71 -9 13.42 -9 9 C-7.68 9 -6.36 9 -5 9 C-5.66 7.02 -6.32 5.04 -7 3 C-7.66 4.32 -8.32 5.64 -9 7 C-9.25 4.6875 -9.25 4.6875 -9 2 C-6.02232423 -1.30852864 -4.10291586 -1.33583307 0 0 Z " fill="#493E35" transform="translate(86,50)"/>
<path d="M0 0 C0.66 0 1.32 0 2 0 C2.66 2.31 3.32 4.62 4 7 C4.66 6.67 5.32 6.34 6 6 C6.495 9.465 6.495 9.465 7 13 C5.68 13 4.36 13 3 13 C3 15.97 3 18.94 3 22 C2.34 21.01 1.68 20.02 1 19 C0.195625 19.7115625 0.195625 19.7115625 -0.625 20.4375 C-3.42388591 22.27887231 -5.72571889 22.49066738 -9 23 C-9.33 23.66 -9.66 24.32 -10 25 C-17.5273523 22.6892779 -17.5273523 22.6892779 -19.5 19.8125 C-19.665 19.214375 -19.83 18.61625 -20 18 C-22.64 18 -25.28 18 -28 18 C-28 17.67 -28 17.34 -28 17 C-25.36 17 -22.72 17 -20 17 C-19.67 16.01 -19.34 15.02 -19 14 C-17.375 13.5 -17.375 13.5 -15 13 C-13.845 12.484375 -12.69 11.96875 -11.5 11.4375 C-8 10 -8 10 -4 10 C-4 9.34 -4 8.68 -4 8 C-4.66 7.67 -5.32 7.34 -6 7 C-5.04882866 5.8274869 -4.08882991 4.66212985 -3.125 3.5 C-2.59132813 2.8503125 -2.05765625 2.200625 -1.5078125 1.53125 C-1.01023437 1.0259375 -0.51265625 0.520625 0 0 Z " fill="#031729" transform="translate(74,46)"/>
<path d="M0 0 C3.125 0.4375 3.125 0.4375 5.5 2.8125 C7.125 5.4375 7.125 5.4375 7.125 7.4375 C8.115 7.4375 9.105 7.4375 10.125 7.4375 C9.81749629 9.58405501 9.5038634 11.72973285 9.1875 13.875 C8.92646484 15.66744141 8.92646484 15.66744141 8.66015625 17.49609375 C8.125 20.4375 8.125 20.4375 7.125 21.4375 C4.96019203 21.5364294 2.79206215 21.567211 0.625 21.5625 C-0.5609375 21.56507812 -1.746875 21.56765625 -2.96875 21.5703125 C-5.875 21.4375 -5.875 21.4375 -6.875 20.4375 C-7.08404433 18.81740641 -7.24285857 17.19067119 -7.375 15.5625 C-7.61779416 12.58827151 -7.92525071 10.28674786 -8.875 7.4375 C-7.885 7.4375 -6.895 7.4375 -5.875 7.4375 C-5.75125 6.65375 -5.6275 5.87 -5.5 5.0625 C-4.61944091 1.3641518 -3.76440287 0.57284392 0 0 Z " fill="#FAD9DD" transform="translate(48.875,66.5625)"/>
<path d="M0 0 C0.2475 0.5775 0.495 1.155 0.75 1.75 C2.60736894 5.09326408 4.55757759 7.51919253 8.25 8.75 C8.8275 8.8325 9.405 8.915 10 9 C9.95875 7.88625 9.9175 6.7725 9.875 5.625 C10 2 10 2 12 0 C12.165 0.7425 12.33 1.485 12.5 2.25 C14.67674742 6.2407036 17.916523 7.30013399 22 9 C22.33 7.02 22.66 5.04 23 3 C23.33 3 23.66 3 24 3 C24.495 10.92 24.495 10.92 25 19 C34.57 19.33 44.14 19.66 54 20 C54 20.33 54 20.66 54 21 C49.57088594 21.02486762 45.14180975 21.04293889 40.71264648 21.05493164 C39.2084075 21.05993555 37.70417332 21.06674073 36.19995117 21.07543945 C34.02781991 21.08767884 31.85575341 21.09326786 29.68359375 21.09765625 C28.37962646 21.10289307 27.07565918 21.10812988 25.73217773 21.11352539 C16.03998058 20.81870812 16.03998058 20.81870812 12.0625 17.6875 C10 15 10 15 10 11 C8.906875 10.896875 7.81375 10.79375 6.6875 10.6875 C3 10 3 10 1.0625 8.875 C-0.58420065 5.96905769 -0.18462917 3.26178195 0 0 Z " fill="#0A1A2C" transform="translate(10,72)"/>
<path d="M0 0 C2.51973725 1.77421866 3.36708999 3.26092515 5 6 C5 7.32 5 8.64 5 10 C6.65 10 8.3 10 10 10 C10 10.66 10 11.32 10 12 C8.02 12 6.04 12 4 12 C3.896875 12.639375 3.79375 13.27875 3.6875 13.9375 C3.460625 14.618125 3.23375 15.29875 3 16 C2.01 16.33 1.02 16.66 0 17 C-0.33 17.99 -0.66 18.98 -1 20 C-1.70125 18.9275 -2.4025 17.855 -3.125 16.75 C-6.97317059 11.37340109 -12.11763704 8.80112522 -18 6 C-18 5.67 -18 5.34 -18 5 C-16.35 5 -14.7 5 -13 5 C-12.566875 4.0409375 -12.566875 4.0409375 -12.125 3.0625 C-9.73615558 -1.31704811 -4.42267686 -0.81590763 0 0 Z " fill="#06192A" transform="translate(74,6)"/>
<path d="M0 0 C2.0703125 0.36328125 2.0703125 0.36328125 3.9375 1.96484375 C6.07164804 3.69170115 6.07164804 3.69170115 9.0859375 3 C10.15328125 2.68675781 11.220625 2.37351563 12.3203125 2.05078125 C13.39796875 1.74527344 14.475625 1.43976562 15.5859375 1.125 C16.40578125 0.87363281 17.225625 0.62226562 18.0703125 0.36328125 C18.5653125 2.34328125 18.5653125 2.34328125 19.0703125 4.36328125 C17.96623047 4.76160156 17.96623047 4.76160156 16.83984375 5.16796875 C15.86402344 5.52117188 14.88820312 5.874375 13.8828125 6.23828125 C12.43841797 6.76035156 12.43841797 6.76035156 10.96484375 7.29296875 C8.11799294 8.30595512 8.11799294 8.30595512 5.62109375 9.4765625 C2.46826902 10.57256742 -0.22186247 10.66428875 -3.5546875 10.67578125 C-4.68132813 10.69253906 -5.80796875 10.70929687 -6.96875 10.7265625 C-10.32035312 10.31534998 -10.79185049 9.79454687 -12.9296875 7.36328125 C-15.1899919 6.36954686 -15.1899919 6.36954686 -17.6171875 5.67578125 C-18.42542969 5.42441406 -19.23367187 5.17304687 -20.06640625 4.9140625 C-20.68128906 4.73230469 -21.29617187 4.55054688 -21.9296875 4.36328125 C-21.9296875 3.70328125 -21.9296875 3.04328125 -21.9296875 2.36328125 C-17.76991326 1.17477432 -15.85063344 1.75468804 -11.9296875 3.36328125 C-7.23968205 2.82728063 -5.1344 0.12689582 0 0 Z " fill="#15293A" transform="translate(50.9296875,51.63671875)"/>
<path d="M0 0 C3.09621956 2.8942922 4.69935904 5.11576188 6.0625 9.125 C6 12 6 12 4.4375 14.375 C1.27040565 16.48639623 -0.25955773 16.68702001 -4 16 C-6.8125 13.5625 -6.8125 13.5625 -9 11 C-9.33 10.67 -9.66 10.34 -10 10 C-10.45868465 2.89038786 -10.45868465 2.89038786 -8.9375 -0.0625 C-5.62746578 -1.66412946 -3.45916812 -1.01389411 0 0 Z " fill="#1B2C3B" transform="translate(65,28)"/>
<path d="M0 0 C1.875 1.0625 1.875 1.0625 3 3 C3.50410559 6.33969955 3.73299147 8.78106233 1.9453125 11.75390625 C0.16447342 13.94043944 -1.45855421 15.72927711 -4 17 C-7.07155269 17.26140874 -9.199384 17.43904748 -11.9375 15.9375 C-13.67134555 12.77578164 -12.82357367 10.41194805 -12 7 C-9.21786323 1.3092657 -6.40515364 -0.6672035 0 0 Z " fill="#1B2C3B" transform="translate(41,27)"/>
<path d="M0 0 C1.65 0 3.3 0 5 0 C5 1.65 5 3.3 5 5 C5.99 5 6.98 5 8 5 C8 3.35 8 1.7 8 0 C8.99 0 9.98 0 11 0 C11 5.28 11 10.56 11 16 C7.04 16 3.08 16 -1 16 C-1.33 13.36 -1.66 10.72 -2 8 C-1.01 8 -0.02 8 1 8 C1 7.34 1 6.68 1 6 C0.01 5.67 -0.98 5.34 -2 5 C-1.34 4.67 -0.68 4.34 0 4 C0 2.68 0 1.36 0 0 Z " fill="#D89108" transform="translate(80,55)"/>
<path d="M0 0 C4.62 0 9.24 0 14 0 C14.125 8.625 14.125 8.625 13 12 C11.02090602 12.02686553 9.04171029 12.04633375 7.0625 12.0625 C5.96035156 12.07410156 4.85820312 12.08570313 3.72265625 12.09765625 C1 12 1 12 0 11 C-0.14310287 7.3308423 -0.04221662 3.67284559 0 0 Z " fill="#B28015" transform="translate(8,51)"/>
<path d="M0 0 C6.15234375 0.5859375 6.15234375 0.5859375 8 1 C9.48520725 3.97041449 9.1705822 6.69764447 9.1875 10 C9.20167969 11.258125 9.21585938 12.51625 9.23046875 13.8125 C9 17 9 17 7 19 C5.12060547 19.22705078 5.12060547 19.22705078 2.8671875 19.1953125 C2.06152344 19.18886719 1.25585938 19.18242188 0.42578125 19.17578125 C-0.41597656 19.15902344 -1.25773437 19.14226562 -2.125 19.125 C-3.39923828 19.11146484 -3.39923828 19.11146484 -4.69921875 19.09765625 C-6.79959884 19.07405647 -8.89983444 19.03818483 -11 19 C-11 18.67 -11 18.34 -11 18 C-10.21753906 17.93941406 -9.43507812 17.87882812 -8.62890625 17.81640625 C-7.61699219 17.73261719 -6.60507812 17.64882812 -5.5625 17.5625 C-4.55316406 17.48128906 -3.54382812 17.40007812 -2.50390625 17.31640625 C-0.06359221 17.26788532 -0.06359221 17.26788532 1 16 C1.28393978 13.48510484 1.4481124 10.97010418 1.62109375 8.4453125 C2 6 2 6 4 3 C3.01 3 2.02 3 1 3 C0.67 2.01 0.34 1.02 0 0 Z " fill="#FC4E62" transform="translate(55,71)"/>
<path d="M0 0 C0.33 0 0.66 0 1 0 C1.08107583 1.93681161 1.13922475 3.8745934 1.1875 5.8125 C1.22230469 6.89144531 1.25710937 7.97039062 1.29296875 9.08203125 C1 12 1 12 -0.3125 13.8125 C-2.69774038 15.49100249 -5.21640028 16.19584897 -8 17 C-8.96070434 14.11788698 -9.10581883 12.30149956 -9.0625 9.3125 C-9.05347656 8.50425781 -9.04445313 7.69601563 -9.03515625 6.86328125 C-9.02355469 6.24839844 -9.01195313 5.63351563 -9 5 C-8.43410156 4.72285156 -7.86820312 4.44570312 -7.28515625 4.16015625 C-6.55167969 3.79792969 -5.81820312 3.43570313 -5.0625 3.0625 C-3.96615234 2.52302734 -3.96615234 2.52302734 -2.84765625 1.97265625 C-1.03750973 1.13628173 -1.03750973 1.13628173 0 0 Z " fill="#F6FAFB" transform="translate(75,64)"/>
<path d="M0 0 C3.3 1.65 6.6 3.3 10 5 C9.67 8.96 9.34 12.92 9 17 C2.47343992 15.69468798 2.47343992 15.69468798 0 13 C-0.390625 9.86328125 -0.390625 9.86328125 -0.25 6.3125 C-0.21390625 5.13300781 -0.1778125 3.95351562 -0.140625 2.73828125 C-0.09421875 1.83464844 -0.0478125 0.93101563 0 0 Z " fill="#F9FCFC" transform="translate(23,64)"/>
<path d="M0 0 C0.89589844 -0.01417969 1.79179688 -0.02835938 2.71484375 -0.04296875 C5.0625 0.1875 5.0625 0.1875 7.0625 2.1875 C7.25 5.25 7.25 5.25 7.0625 8.1875 C6.0625 9.1875 6.0625 9.1875 3.33984375 9.28515625 C1.68662109 9.26775391 1.68662109 9.26775391 0 9.25 C-1.10472656 9.24097656 -2.20945312 9.23195313 -3.34765625 9.22265625 C-4.62962891 9.20525391 -4.62962891 9.20525391 -5.9375 9.1875 C-6.03515625 3.03515625 -6.03515625 3.03515625 -5.9375 1.1875 C-4.27188601 -0.47811399 -2.27787295 0.01634055 0 0 Z " fill="#EB6065" transform="translate(85.9375,35.8125)"/>
<path d="M0 0 C3.63 0 7.26 0 11 0 C11 3.3 11 6.6 11 10 C7.37 10 3.74 10 0 10 C0 6.7 0 3.4 0 0 Z " fill="#EAA014" transform="translate(9,33)"/>
<path d="M0 0 C3.24543249 0.52986653 4.67633371 1.29738497 7.0625 3.5 C6.1875 9.375 6.1875 9.375 5.0625 10.5 C3.37641034 10.57205511 1.68749341 10.58386068 0 10.5625 C-0.91910156 10.55347656 -1.83820313 10.54445313 -2.78515625 10.53515625 C-3.49542969 10.52355469 -4.20570312 10.51195312 -4.9375 10.5 C-5.93502325 7.32606237 -6.06762788 5.84445615 -4.875 2.6875 C-2.9375 0.5 -2.9375 0.5 0 0 Z " fill="#58B26C" transform="translate(80.9375,17.5)"/>
<path d="M0 0 C1.9375 1.5625 1.9375 1.5625 3 4 C2.1875 7.75 2.1875 7.75 1 11 C-1.97 11 -4.94 11 -8 11 C-8.36334661 3.61195219 -8.36334661 3.61195219 -6.8125 1 C-4.30538007 -0.38323858 -2.8180173 -0.49315303 0 0 Z " fill="#20E4EB" transform="translate(21,19)"/>
<path d="M0 0 C3.465 1.485 3.465 1.485 7 3 C7 8.94 7 14.88 7 21 C6.67 21 6.34 21 6 21 C6 15.72 6 10.44 6 5 C4.68 5 3.36 5 2 5 C2 6.65 2 8.3 2 10 C1.01 10 0.02 10 -1 10 C-1 8.35 -1 6.7 -1 5 C-2.65 5 -4.3 5 -6 5 C-6.33 4.34 -6.66 3.68 -7 3 C-7.66 4.32 -8.32 5.64 -9 7 C-9.25 4.6875 -9.25 4.6875 -9 2 C-6.02232423 -1.30852864 -4.10291586 -1.33583307 0 0 Z " fill="#102C38" transform="translate(86,50)"/>
<path d="M0 0 C3.875 1.875 3.875 1.875 5 3 C5.46992557 10.28384631 5.46992557 10.28384631 3.859375 12.73828125 C1.20438121 14.53988418 -0.82137464 14.36313986 -4 14.3125 C-5.5778125 14.30669922 -5.5778125 14.30669922 -7.1875 14.30078125 C-10 14 -10 14 -13 12 C-13 13.98 -13 15.96 -13 18 C-13.33 18 -13.66 18 -14 18 C-14.95727848 12.6914557 -14.95727848 12.6914557 -15 10 C-13.6875 8.1875 -13.6875 8.1875 -12 7 C-11.34 6.01 -10.68 5.02 -10 4 C-10 6.31 -10 8.62 -10 11 C-4.06 10.505 -4.06 10.505 2 10 C2.16110937 4.39279978 2.16110937 4.39279978 0 0 Z " fill="#1F1D2F" transform="translate(90,34)"/>
<path d="M0 0 C0 3.63 0 7.26 0 11 C-5.42693662 10.51760563 -5.42693662 10.51760563 -7.9375 8.25 C-9.29415549 5.3770825 -9.04086843 3.96247168 -8 1 C-5.29120665 -0.35439668 -2.99066732 -0.06501451 0 0 Z " fill="#CC7907" transform="translate(20,70)"/>
<path d="M0 0 C1.875 1.1875 1.875 1.1875 3 3 C2.6875 5.6875 2.6875 5.6875 2 8 C-0.97 8 -3.94 8 -7 8 C-7.6875 5.6875 -7.6875 5.6875 -8 3 C-5.94185524 -0.31589989 -3.722023 -0.55830345 0 0 Z " fill="#F9FAF9" transform="translate(52,54)"/>
<path d="M0 0 C0.66 0 1.32 0 2 0 C2 2.97 2 5.94 2 9 C4.64 9 7.28 9 10 9 C10 9.33 10 9.66 10 10 C6.37 10.33 2.74 10.66 -1 11 C-1 14.3 -1 17.6 -1 21 C2.3 21.33 5.6 21.66 9 22 C9 22.33 9 22.66 9 23 C7.02090602 23.02686553 5.04171029 23.04633375 3.0625 23.0625 C1.96035156 23.07410156 0.85820312 23.08570312 -0.27734375 23.09765625 C-3 23 -3 23 -4 22 C-4.07244053 19.98035801 -4.08377188 17.95832876 -4.0625 15.9375 C-4.05347656 14.83277344 -4.04445313 13.72804688 -4.03515625 12.58984375 C-4.02355469 11.73519531 -4.01195312 10.88054688 -4 10 C-2.68 9.34 -1.36 8.68 0 8 C0 5.36 0 2.72 0 0 Z " fill="#05192A" transform="translate(11,22)"/>
<path d="M0 0 C0.33 0 0.66 0 1 0 C1.10957031 0.61488281 1.21914063 1.22976562 1.33203125 1.86328125 C1.49058594 2.67152344 1.64914063 3.47976562 1.8125 4.3125 C1.96332031 5.11300781 2.11414063 5.91351563 2.26953125 6.73828125 C3.08213407 9.25430815 4.10108767 10.22594766 6 12 C6 12.66 6 13.32 6 14 C9.55503162 15.49480306 13.08584888 16.63721296 16.8125 17.625 C17.78832031 17.88539062 18.76414062 18.14578125 19.76953125 18.4140625 C20.50558594 18.60742188 21.24164063 18.80078125 22 19 C21.34 19.99 20.68 20.98 20 22 C13.34448011 20.90463716 7.17554498 18.22860706 2.4375 13.375 C-0.3364611 8.79193383 -0.08511306 5.19189691 0 0 Z " fill="#ABCEE3" transform="translate(22,34)"/>
<path d="M0 0 C0.33 0 0.66 0 1 0 C1.4596998 5.74624746 0.67500704 8.55130726 -3 13 C-7.75397081 17.86716059 -12.45066316 19.40796753 -19 21 C-19.66 20.01 -20.32 19.02 -21 18 C-20.34773438 17.82984375 -19.69546875 17.6596875 -19.0234375 17.484375 C-12.26057892 15.60912808 -7.16231692 13.7467269 -2.6875 8.0625 C-1.13465954 5.24438213 -0.3727382 3.16827466 0 0 Z " fill="#A8C9DF" transform="translate(76,35)"/>
<path d="M0 0 C2 3 2 3 2 7 C-3.94 7.495 -3.94 7.495 -10 8 C-10.33 6.35 -10.66 4.7 -11 3 C-10.37351562 2.95101563 -9.74703125 2.90203125 -9.1015625 2.8515625 C-8.28429687 2.77679687 -7.46703125 2.70203125 -6.625 2.625 C-5.81289062 2.55539063 -5.00078125 2.48578125 -4.1640625 2.4140625 C-1.79665809 2.17107412 -1.79665809 2.17107412 0 0 Z " fill="#1ACAD4" transform="translate(89,27)"/>
<path d="M0 0 C3.83919971 0.94272164 5.10745119 3.30624499 7.1953125 6.5390625 C6.8653125 7.1990625 6.5353125 7.8590625 6.1953125 8.5390625 C5.2053125 8.5390625 4.2153125 8.5390625 3.1953125 8.5390625 C2.75574219 7.88421875 2.31617187 7.229375 1.86328125 6.5546875 C0.33706524 4.25131631 0.33706524 4.25131631 -2.50390625 4.1484375 C-3.49003906 4.19484375 -4.47617188 4.24125 -5.4921875 4.2890625 C-6.48605469 4.32515625 -7.47992188 4.36125 -8.50390625 4.3984375 C-9.26316406 4.44484375 -10.02242187 4.49125 -10.8046875 4.5390625 C-7.76353988 0.3079006 -4.94440142 -0.17949972 0 0 Z " fill="#2A4152" transform="translate(71.8046875,5.4609375)"/>
<path d="M0 0 C1.98 0 3.96 0 6 0 C6 3 6 3 5 6 C6.65 5.67 8.3 5.34 10 5 C9.67 5.99 9.34 6.98 9 8 C5.37 8 1.74 8 -2 8 C-2.33 6.68 -2.66 5.36 -3 4 C-0.525 4.99 -0.525 4.99 2 6 C2 5.01 2 4.02 2 3 C1.34 3 0.68 3 0 3 C0 2.01 0 1.02 0 0 Z " fill="#142432" transform="translate(46,39)"/>
<path d="M0 0 C0.99 0 1.98 0 3 0 C3 5.28 3 10.56 3 16 C-0.96 16 -4.92 16 -9 16 C-9 15.67 -9 15.34 -9 15 C-4.545 14.505 -4.545 14.505 0 14 C0 12.576875 0 11.15375 0 9.6875 C0 6.45833333 0 3.22916667 0 0 Z " fill="#F69203" transform="translate(88,55)"/>
<path d="M0 0 C3.96 0 7.92 0 12 0 C12 0.66 12 1.32 12 2 C10.36368108 3.04892238 8.69514137 4.04906703 7 5 C6.67 5.33 6.34 5.66 6 6 C4.00041636 6.04080783 1.99954746 6.04254356 0 6 C0 4.02 0 2.04 0 0 Z " fill="#4BDBD8" transform="translate(79,74)"/>
<path d="M0 0 C0.66 0.33 1.32 0.66 2 1 C1.39254603 5.85963179 -0.72758967 9.7405518 -3 14 C-3.33 12.68 -3.66 11.36 -4 10 C-7.3 10 -10.6 10 -14 10 C-11 7 -11 7 -8.73828125 6.70703125 C-7.93777344 6.74183594 -7.13726562 6.77664062 -6.3125 6.8125 C-5.50425781 6.83957031 -4.69601563 6.86664062 -3.86328125 6.89453125 C-3.24839844 6.92933594 -2.63351563 6.96414062 -2 7 C-1.855625 6.21625 -1.71125 5.4325 -1.5625 4.625 C-1 2 -1 2 0 0 Z " fill="#263B38" transform="translate(24,23)"/>
<path d="M0 0 C1.2684375 0.12375 1.2684375 0.12375 2.5625 0.25 C4.5625 3.25 4.5625 3.25 4.5625 7.25 C1.9225 7.25 -0.7175 7.25 -3.4375 7.25 C-3.48004356 5.25045254 -3.47830783 3.24958364 -3.4375 1.25 C-2.4375 0.25 -2.4375 0.25 0 0 Z " fill="#7BCF4D" transform="translate(80.4375,19.75)"/>
<path d="M0 0 C0.33 0 0.66 0 1 0 C1 3.63 1 7.26 1 11 C-9.23 11 -19.46 11 -30 11 C-29.67 10.01 -29.34 9.02 -29 8 C-28.67 8.33 -28.34 8.66 -28 9 C-26.08541718 9.09971786 -24.16717683 9.13080589 -22.25 9.1328125 C-21.0846875 9.13410156 -19.919375 9.13539062 -18.71875 9.13671875 C-16.87796875 9.13091797 -16.87796875 9.13091797 -15 9.125 C-13.7728125 9.12886719 -12.545625 9.13273437 -11.28125 9.13671875 C-10.1159375 9.13542969 -8.950625 9.13414063 -7.75 9.1328125 C-6.67234375 9.13168457 -5.5946875 9.13055664 -4.484375 9.12939453 C-2.05780003 9.28092371 -2.05780003 9.28092371 -1 8 C-0.76924918 6.65252916 -0.58846937 5.29622435 -0.4375 3.9375 C-0.293125 2.638125 -0.14875 1.33875 0 0 Z " fill="#DB3354" transform="translate(64,80)"/>
<path d="M0 0 C0.33 0 0.66 0 1 0 C1.04254356 1.99954746 1.04080783 4.00041636 1 6 C0 7 0 7 -2.72265625 7.09765625 C-4.37587891 7.08025391 -4.37587891 7.08025391 -6.0625 7.0625 C-7.16722656 7.05347656 -8.27195312 7.04445313 -9.41015625 7.03515625 C-10.69212891 7.01775391 -10.69212891 7.01775391 -12 7 C-11.625 4.5625 -11.625 4.5625 -11 2 C-10.34 1.67 -9.68 1.34 -9 1 C-9 2.32 -9 3.64 -9 5 C-7.02 5 -5.04 5 -3 5 C-2.67 4.01 -2.34 3.02 -2 2 C-1.34 1.34 -0.68 0.68 0 0 Z " fill="#E34156" transform="translate(92,38)"/>
<path d="M0 0 C8 0.92307692 8 0.92307692 11 3 C11.33 3.99 11.66 4.98 12 6 C8.33118845 5.29445932 5.29549466 3.72264494 2 2 C2.33 3.32 2.66 4.64 3 6 C0.625 6.1875 0.625 6.1875 -2 6 C-2.66 5.01 -3.32 4.02 -4 3 C-2.68 3 -1.36 3 0 3 C0 2.01 0 1.02 0 0 Z " fill="#243241" transform="translate(45,7)"/>
<path d="M0 0 C0.33 0 0.66 0 1 0 C1.144375 1.134375 1.28875 2.26875 1.4375 3.4375 C1.61171478 6.80777201 1.61171478 6.80777201 3 8 C4.68183948 8.23287008 6.3712416 8.41264166 8.0625 8.5625 C8.98160156 8.64628906 9.90070313 8.73007812 10.84765625 8.81640625 C11.55792969 8.87699219 12.26820312 8.93757813 13 9 C13 9.33 13 9.66 13 10 C11.06280622 10.05406122 9.12518079 10.09282025 7.1875 10.125 C6.10855469 10.14820313 5.02960938 10.17140625 3.91796875 10.1953125 C1 10 1 10 -2 8 C-2 9.98 -2 11.96 -2 14 C-2.33 14 -2.66 14 -3 14 C-3.9630643 8.65937073 -3.9630643 8.65937073 -4 6 C-2.625 4.1875 -2.625 4.1875 -1 3 C-0.67 2.01 -0.34 1.02 0 0 Z " fill="#203C4B" transform="translate(79,38)"/>
<path d="M0 0 C0.66 0.66 1.32 1.32 2 2 C1.95875 3.11375 1.9175 4.2275 1.875 5.375 C1.6504103 9.01706982 1.6504103 9.01706982 3.8125 11.375 C5.99221829 13.17066872 5.99221829 13.17066872 9 14 C9 14.99 9 15.98 9 17 C5.18585688 16.4702579 2.72995856 15.77622905 0 13 C-0.390625 9.86328125 -0.390625 9.86328125 -0.25 6.3125 C-0.21390625 5.13300781 -0.1778125 3.95351562 -0.140625 2.73828125 C-0.09421875 1.83464844 -0.0478125 0.93101563 0 0 Z " fill="#ABC9DD" transform="translate(23,64)"/>
<path d="M0 0 C0.99386719 0.02707031 1.98773438 0.05414063 3.01171875 0.08203125 C4.15060547 0.13423828 4.15060547 0.13423828 5.3125 0.1875 C5.3125 2.8275 5.3125 5.4675 5.3125 8.1875 C4.3225 7.5275 3.3325 6.8675 2.3125 6.1875 C2.3125 4.8675 2.3125 3.5475 2.3125 2.1875 C-0.3275 2.5175 -2.9675 2.8475 -5.6875 3.1875 C-6.3475 5.4975 -7.0075 7.8075 -7.6875 10.1875 C-8.0175 10.1875 -8.3475 10.1875 -8.6875 10.1875 C-9.05297507 3.73077375 -9.05297507 3.73077375 -7.53125 1.46875 C-4.95510037 -0.32145567 -3.1020692 -0.1094848 0 0 Z " fill="#25373D" transform="translate(17.6875,67.8125)"/>
<path d="M0 0 C0.99 0.33 1.98 0.66 3 1 C4.89212737 1.22179785 6.78884472 1.40614015 8.6875 1.5625 C9.68136719 1.64628906 10.67523438 1.73007812 11.69921875 1.81640625 C12.83810547 1.90728516 12.83810547 1.90728516 14 2 C14 3.32 14 4.64 14 6 C11.4562544 5.49125088 8.94414027 4.98501324 6.4375 4.3125 C3.58545931 3.94685376 2.39542737 4.49176795 0 6 C0 4.02 0 2.04 0 0 Z " fill="#13E5EC" transform="translate(77,46)"/>
<path d="M0 0 C0.33 0.99 0.66 1.98 1 3 C-0.76858691 3.67260351 -2.53996016 4.33788395 -4.3125 5 C-5.29863281 5.37125 -6.28476562 5.7425 -7.30078125 6.125 C-10 7 -10 7 -13 7 C-11.68 6.01 -10.36 5.02 -9 4 C-9.33 3.34 -9.66 2.68 -10 2 C-8.71211992 1.46987262 -7.41953322 0.9511671 -6.125 0.4375 C-5.40570313 0.14746094 -4.68640625 -0.14257812 -3.9453125 -0.44140625 C-2 -1 -2 -1 0 0 Z " fill="#1F3649" transform="translate(69,53)"/>
<path d="M0 0 C0.33 0 0.66 0 1 0 C1.08107583 1.93681161 1.13922475 3.8745934 1.1875 5.8125 C1.22230469 6.89144531 1.25710937 7.97039062 1.29296875 9.08203125 C1 12 1 12 -0.3125 13.8125 C-2.69774038 15.49100249 -5.21640028 16.19584897 -8 17 C-7 14 -7 14 -4.5625 12.4375 C-0.82288956 8.88030958 -0.63664569 4.97913945 0 0 Z " fill="#AFCFE3" transform="translate(75,64)"/>
<path d="M0 0 C3.96 0 7.92 0 12 0 C12 0.99 12 1.98 12 3 C11.06027344 3.09087891 11.06027344 3.09087891 10.1015625 3.18359375 C9.28429688 3.26738281 8.46703125 3.35117188 7.625 3.4375 C6.81289062 3.51871094 6.00078125 3.59992188 5.1640625 3.68359375 C2.95727195 3.89090114 2.95727195 3.89090114 1 5 C0.67 3.35 0.34 1.7 0 0 Z " fill="#1BCFDA" transform="translate(9,65)"/>
<path d="M0 0 C2.97 0.99 5.94 1.98 9 3 C8.01 3.33 7.02 3.66 6 4 C6 5.65 6 7.3 6 9 C5.01 9 4.02 9 3 9 C3 7.35 3 5.7 3 4 C1.35 4 -0.3 4 -2 4 C-1.34 2.68 -0.68 1.36 0 0 Z " fill="#584926" transform="translate(82,51)"/>
<path d="M0 0 C0 1.98 0 3.96 0 6 C-0.66 5.01 -1.32 4.02 -2 3 C-2.99 3 -3.98 3 -5 3 C-5.33 4.98 -5.66 6.96 -6 9 C-7.5625 7.8125 -7.5625 7.8125 -9 6 C-8.8125 3.375 -8.8125 3.375 -8 1 C-5.29120665 -0.35439668 -2.99066732 -0.06501451 0 0 Z " fill="#D5920C" transform="translate(20,70)"/>
<path d="M0 0 C0.90105469 0.00902344 1.80210938 0.01804688 2.73046875 0.02734375 C3.41753906 0.03894531 4.10460937 0.05054688 4.8125 0.0625 C4.8125 0.7225 4.8125 1.3825 4.8125 2.0625 C4.19761719 2.07667969 3.58273438 2.09085938 2.94921875 2.10546875 C0.47756369 2.25132399 -1.78455567 2.45642878 -4.1875 3.0625 C-6.25204002 5.46993101 -6.25204002 5.46993101 -7.1875 8.0625 C-7.5175 8.0625 -7.8475 8.0625 -8.1875 8.0625 C-8.1875 5.7525 -8.1875 3.4425 -8.1875 1.0625 C-5.17259443 0.05753148 -3.14568308 -0.04085303 0 0 Z " fill="#05192D" transform="translate(85.1875,33.9375)"/>
<path d="M0 0 C1.65322266 0.01740234 1.65322266 0.01740234 3.33984375 0.03515625 C4.99693359 0.04869141 4.99693359 0.04869141 6.6875 0.0625 C7.54214844 0.07410156 8.39679687 0.08570313 9.27734375 0.09765625 C9.27734375 0.42765625 9.27734375 0.75765625 9.27734375 1.09765625 C5.97734375 1.42765625 2.67734375 1.75765625 -0.72265625 2.09765625 C-0.84640625 3.56203125 -0.97015625 5.02640625 -1.09765625 6.53515625 C-1.30859375 9.03125 -1.30859375 9.03125 -1.72265625 11.09765625 C-2.71265625 11.59265625 -2.71265625 11.59265625 -3.72265625 12.09765625 C-3.74952904 10.28523573 -3.7689934 8.47270392 -3.78515625 6.66015625 C-3.79675781 5.65082031 -3.80835938 4.64148437 -3.8203125 3.6015625 C-3.68353101 0.09448515 -3.5276627 0.12653023 0 0 Z " fill="#051829" transform="translate(9.72265625,48.90234375)"/>
<path d="M0 0 C1.65 0.33 3.3 0.66 5 1 C5.33 2.32 5.66 3.64 6 5 C3.36 5 0.72 5 -2 5 C-1.34 3.35 -0.68 1.7 0 0 Z " fill="#F8596C" transform="translate(47,69)"/>
<path d="M0 0 C3.1875 0.375 3.1875 0.375 5.5625 2.875 C6.09875 3.7 6.635 4.525 7.1875 5.375 C6.8575 6.035 6.5275 6.695 6.1875 7.375 C5.5275 7.375 4.8675 7.375 4.1875 7.375 C3.5275 6.055 2.8675 4.735 2.1875 3.375 C0.8675 3.375 -0.4525 3.375 -1.8125 3.375 C-2.4725 4.035 -3.1325 4.695 -3.8125 5.375 C-3.8125 0.50833333 -3.8125 0.50833333 0 0 Z " fill="#F7E9EB" transform="translate(48.8125,66.625)"/>
<path d="M0 0 C0.66 0.66 1.32 1.32 2 2 C4.36730201 2.38710381 4.36730201 2.38710381 7 2.5 C11.77777778 2.77777778 11.77777778 2.77777778 14 5 C9.38 5 4.76 5 0 5 C-0.33 3.68 -0.66 2.36 -1 1 C-0.67 0.67 -0.34 0.34 0 0 Z " fill="#0E3040" transform="translate(7,60)"/>
<path d="M0 0 C1.98 0 3.96 0 6 0 C6.38133299 1.9914056 6.71325582 3.99279077 7 6 C6 7 6 7 3.4375 7.0625 C2.2309375 7.0315625 2.2309375 7.0315625 1 7 C2.32 6.67 3.64 6.34 5 6 C5 5.34 5 4.68 5 4 C3.35 3.67 1.7 3.34 0 3 C0 2.01 0 1.02 0 0 Z " fill="#F7EBBD" transform="translate(12,34)"/>
<path d="M0 0 C2.5 0.5 2.5 0.5 5.5 4.5 C1.87 4.5 -1.76 4.5 -5.5 4.5 C-2.5 0.5 -2.5 0.5 0 0 Z " fill="#B3D2E6" transform="translate(49.5,53.5)"/>
<path d="M0 0 C1.32 0 2.64 0 4 0 C4 2.64 4 5.28 4 8 C2.68 8.33 1.36 8.66 0 9 C0 6.03 0 3.06 0 0 Z " fill="#835F18" transform="translate(18,52)"/>
<path d="M0 0 C0.33 0.66 0.66 1.32 1 2 C0.34 2 -0.32 2 -1 2 C-1 2.66 -1 3.32 -1 4 C-5.455 5.485 -5.455 5.485 -10 7 C-10.66 6.01 -11.32 5.02 -12 4 C-11.30132812 3.79503906 -10.60265625 3.59007812 -9.8828125 3.37890625 C-8.97273438 3.10949219 -8.06265625 2.84007812 -7.125 2.5625 C-6.22007813 2.29566406 -5.31515625 2.02882812 -4.3828125 1.75390625 C-2.01724619 1.07386174 -2.01724619 1.07386174 0 0 Z " fill="#B5D8EE" transform="translate(67,49)"/>
<path d="M0 0 C1.485 0.99 1.485 0.99 3 2 C5.32108669 2.70812814 7.65377147 3.38024152 10 4 C9.67 5.32 9.34 6.64 9 8 C9 7.34 9 6.68 9 6 C6.36 5.67 3.72 5.34 1 5 C0.67 3.35 0.34 1.7 0 0 Z " fill="#B3304E" transform="translate(54,66)"/>
<path d="M0 0 C1.2065625 0.0309375 1.2065625 0.0309375 2.4375 0.0625 C2.4375 3.0625 2.4375 3.0625 1.4375 5.0625 C-0.5425 5.0625 -2.5225 5.0625 -4.5625 5.0625 C-3.43829114 0.08386076 -3.43829114 0.08386076 0 0 Z " fill="#F4BFC1" transform="translate(87.5625,37.9375)"/>
<path d="M0 0 C0.33 0 0.66 0 1 0 C1.09796875 0.59167969 1.1959375 1.18335938 1.296875 1.79296875 C2.26966432 6.93365713 3.4007843 10.04086273 7 14 C7 14.66 7 15.32 7 16 C4.02422056 14.97386916 3.02245939 14.03368909 1.25 11.375 C-0.27728895 7.25131983 -0.22586715 4.36676486 0 0 Z " fill="#A2C1D4" transform="translate(22,34)"/>
<path d="M0 0 C1.67542976 0.28604898 3.34385343 0.61781233 5 1 C4.67 2.32 4.34 3.64 4 5 C2.68 5 1.36 5 0 5 C-0.5625 3.0625 -0.5625 3.0625 -1 1 C-0.67 0.67 -0.34 0.34 0 0 Z " fill="#F8F6EB" transform="translate(14,54)"/>
<path d="M0 0 C0.2475 0.5775 0.495 1.155 0.75 1.75 C1.93990475 4.13449889 1.93990475 4.13449889 4.125 6.125 C6 8 6 8 6 10 C7.32 10.33 8.64 10.66 10 11 C3.69837297 10.40550688 3.69837297 10.40550688 1.0625 8.875 C-0.58420065 5.96905769 -0.18462917 3.26178195 0 0 Z " fill="#172532" transform="translate(10,72)"/>
<path d="M0 0 C1.98 0 3.96 0 6 0 C6 3 6 3 4 6 C3.34 6 2.68 6 2 6 C2 5.01 2 4.02 2 3 C1.34 3 0.68 3 0 3 C0 2.01 0 1.02 0 0 Z " fill="#22313F" transform="translate(46,39)"/>
<path d="M0 0 C0.33 0 0.66 0 1 0 C1 2.64 1 5.28 1 8 C-1.62315032 9.31157516 -3.23033436 8.89649988 -6.125 8.5625 C-7.49011719 8.40974609 -7.49011719 8.40974609 -8.8828125 8.25390625 C-9.58148438 8.17011719 -10.28015625 8.08632813 -11 8 C-11 7.67 -11 7.34 -11 7 C-7.7 7 -4.4 7 -1 7 C-1.020625 6.030625 -1.04125 5.06125 -1.0625 4.0625 C-1 1 -1 1 0 0 Z " fill="#282322" transform="translate(21,36)"/>
<path d="M0 0 C0.66 0.33 1.32 0.66 2 1 C1.34 3.31 0.68 5.62 0 8 C-1.98 8 -3.96 8 -6 8 C-5.67 7.34 -5.34 6.68 -5 6 C-4.01 6 -3.02 6 -2 6 C-1.855625 5.195625 -1.71125 4.39125 -1.5625 3.5625 C-1 1 -1 1 0 0 Z " fill="#17E6ED" transform="translate(22,22)"/>
<path d="M0 0 C1.65 0 3.3 0 5 0 C5 1.32 5 2.64 5 4 C3.68 4 2.36 4 1 4 C1 4.66 1 5.32 1 6 C0.01 6 -0.98 6 -2 6 C-1.34 4.02 -0.68 2.04 0 0 Z " fill="#6C7984" transform="translate(27,5)"/>
<path d="M0 0 C2.31 0 4.62 0 7 0 C6.34 1.65 5.68 3.3 5 5 C3.68 5 2.36 5 1 5 C0.67 3.35 0.34 1.7 0 0 Z " fill="#A0F2F2" transform="translate(15,22)"/>
<path d="M0 0 C1.875 0.75 1.875 0.75 2.875 2.75 C0.565 3.08 -1.745 3.41 -4.125 3.75 C-4.125 4.41 -4.125 5.07 -4.125 5.75 C-5.115 5.75 -6.105 5.75 -7.125 5.75 C-5.63956061 2.32206295 -4.23901468 -0.49870761 0 0 Z " fill="#1D424E" transform="translate(18.125,16.25)"/>
<path d="M0 0 C-0.33 0.99 -0.66 1.98 -1 3 C-2.65 3.33 -4.3 3.66 -6 4 C-6 6.31 -6 8.62 -6 11 C-6.33 11 -6.66 11 -7 11 C-7 8.03 -7 5.06 -7 2 C-2.25 0 -2.25 0 0 0 Z " fill="#A8C2D2" transform="translate(73,67)"/>
<path d="M0 0 C2.97 0 5.94 0 9 0 C9.33 1.65 9.66 3.3 10 5 C9.01 4.34 8.02 3.68 7 3 C4.66800612 2.92094936 2.33167378 2.91201231 0 3 C0 2.01 0 1.02 0 0 Z " fill="#F55A6E" transform="translate(45,65)"/>
<path d="M0 0 C0.99 0.33 1.98 0.66 3 1 C2.01 2.32 1.02 3.64 0 5 C0.66 5.33 1.32 5.66 2 6 C1.01 6 0.02 6 -1 6 C-1 6.66 -1 7.32 -1 8 C-1.66 7.67 -2.32 7.34 -3 7 C-3 3 -3 3 -1.5 1.25 C-1.005 0.8375 -0.51 0.425 0 0 Z " fill="#1F3241" transform="translate(25,6)"/>
<path d="M0 0 C1.65 0 3.3 0 5 0 C5 0.66 5 1.32 5 2 C4.01 2.33 3.02 2.66 2 3 C3.32 3.99 4.64 4.98 6 6 C4.02 6 2.04 6 0 6 C0 4.02 0 2.04 0 0 Z " fill="#0CCBC5" transform="translate(79,74)"/>
<path d="M0 0 C0.33 0.99 0.66 1.98 1 3 C-2.51187196 5.40814077 -4.72656908 6.36629408 -9 6 C-9 5.34 -9 4.68 -9 4 C-7.88625 3.71125 -6.7725 3.4225 -5.625 3.125 C-1.99708908 2.30758671 -1.99708908 2.30758671 0 0 Z " fill="#CC3450" transform="translate(44,66)"/>
<path d="M0 0 C2 3 2 3 1.625 5.1875 C1.41875 5.785625 1.2125 6.38375 1 7 C-0.65 6.67 -2.3 6.34 -4 6 C-2.68 4.02 -1.36 2.04 0 0 Z " fill="#2AE2EA" transform="translate(89,27)"/>
<path d="M0 0 C0.66 0.33 1.32 0.66 2 1 C-0.64 3.64 -3.28 6.28 -6 9 C-6.66 8.67 -7.32 8.34 -8 8 C-3.375 2.25 -3.375 2.25 0 0 Z " fill="#DEE6E6" transform="translate(35,15)"/>
<path d="M0 0 C2.64 0.99 5.28 1.98 8 3 C7.67 4.32 7.34 5.64 7 7 C5.82780457 6.21654285 4.66236332 5.42297164 3.5 4.625 C2.8503125 4.18414062 2.200625 3.74328125 1.53125 3.2890625 C1.0259375 2.86367187 0.520625 2.43828125 0 2 C0 1.34 0 0.68 0 0 Z " fill="#A8C8DF" transform="translate(25,66)"/>
<path d="M0 0 C4.29 0 8.58 0 13 0 C11.68 0.33 10.36 0.66 9 1 C9 1.66 9 2.32 9 3 C7.68 3 6.36 3 5 3 C5 2.34 5 1.68 5 1 C3.35 1 1.7 1 0 1 C0 0.67 0 0.34 0 0 Z " fill="#F3C534" transform="translate(9,51)"/>
<path d="M0 0 C1.32 0.66 2.64 1.32 4 2 C4 3.32 4 4.64 4 6 C2.35 6 0.7 6 -1 6 C-0.67 4.02 -0.34 2.04 0 0 Z " fill="#DEF1CE" transform="translate(81,20)"/>
<path d="M0 0 C3.68754757 0.49831724 5.60490662 1.10067643 8 4 C5 5 5 5 2.3125 3.6875 C1.549375 3.130625 0.78625 2.57375 0 2 C0 1.34 0 0.68 0 0 Z " fill="#192837" transform="translate(49,8)"/>
<path d="M0 0 C5.37305699 -0.35233161 5.37305699 -0.35233161 8 0 C10 2 10 2 11 4 C8 4 8 4 5 2 C3.34450469 1.61500109 1.6777567 1.27206865 0 1 C0 0.67 0 0.34 0 0 Z " fill="#0F1F30" transform="translate(66,6)"/>
<path d="M0 0 C1.36125 0.37125 1.36125 0.37125 2.75 0.75 C2.42 1.41 2.09 2.07 1.75 2.75 C-0.31640625 3.1640625 -0.31640625 3.1640625 -2.8125 3.375 C-3.63878906 3.44976562 -4.46507812 3.52453125 -5.31640625 3.6015625 C-6.27353516 3.67503906 -6.27353516 3.67503906 -7.25 3.75 C-4.05 -0.31153846 -4.05 -0.31153846 0 0 Z " fill="#213243" transform="translate(68.25,6.25)"/>
<path d="M0 0 C0.66 0 1.32 0 2 0 C1.75 1.875 1.75 1.875 1 4 C-1.0625 5.25 -1.0625 5.25 -3 6 C-2.42655063 3.13275314 -2.1385485 2.1385485 0 0 Z " fill="#183744" transform="translate(88,76)"/>
<path d="M0 0 C1.98 0 3.96 0 6 0 C6 1.98 6 3.96 6 6 C5.34 5.01 4.68 4.02 4 3 C1.43717258 2.27034634 1.43717258 2.27034634 -1 2 C-0.67 1.34 -0.34 0.68 0 0 Z " fill="#F4BB20" transform="translate(14,70)"/>
<path d="M0 0 C0.66 0 1.32 0 2 0 C2 2.64 2 5.28 2 8 C1.01 7.34 0.02 6.68 -1 6 C-1.25 3.4375 -1.25 3.4375 -1 1 C-0.67 0.67 -0.34 0.34 0 0 Z " fill="#283A49" transform="translate(21,68)"/>
<path d="M0 0 C0.99 0 1.98 0 3 0 C3 3.96 3 7.92 3 12 C2.67 12 2.34 12 2 12 C1.93941406 11.38511719 1.87882812 10.77023438 1.81640625 10.13671875 C1.73261719 9.32847656 1.64882812 8.52023438 1.5625 7.6875 C1.48128906 6.88699219 1.40007812 6.08648437 1.31640625 5.26171875 C1.04734307 2.83912821 1.04734307 2.83912821 0 0 Z " fill="#F8B70F" transform="translate(88,55)"/>
<path d="M0 0 C0.33 0 0.66 0 1 0 C1.33 2.31 1.66 4.62 2 7 C0.68 7 -0.64 7 -2 7 C-1.34 4.69 -0.68 2.38 0 0 Z " fill="#0D1B25" transform="translate(79,52)"/>
<path d="M0 0 C2.64 0 5.28 0 8 0 C8.33 1.32 8.66 2.64 9 4 C7.35 3.67 5.7 3.34 4 3 C4 2.34 4 1.68 4 1 C2.68 0.67 1.36 0.34 0 0 Z " fill="#DF8283" transform="translate(83,36)"/>
</svg>
