<?xml version="1.0" standalone="no"?>
<!DOCTYPE svg PUBLIC "-//W3C//DTD SVG 20010904//EN"
 "http://www.w3.org/TR/2001/REC-SVG-20010904/DTD/svg10.dtd">
<svg version="1.0" xmlns="http://www.w3.org/2000/svg"
 width="1024.000000pt" height="1024.000000pt" viewBox="0 0 1024.000000 1024.000000"
 preserveAspectRatio="xMidYMid meet">

<g transform="translate(0.000000,1024.000000) scale(0.100000,-0.100000)"
fill="#000000" stroke="none">
<path d="M0 5120 l0 -5120 5120 0 5120 0 0 5120 0 5120 -5120 0 -5120 0 0
-5120z m6314 4068 c22 -31 20 -77 -5 -117 -16 -27 -23 -31 -30 -20 -5 8 -9 22
-9 31 0 9 -10 34 -22 54 l-22 37 23 18 c30 25 46 24 65 -3z m-2980 -162 c74
-31 104 -112 66 -182 -34 -66 -96 -89 -164 -60 -74 31 -102 107 -66 182 33 67
93 90 164 60z m2057 -166 c257 -26 582 -92 797 -163 l74 -24 70 36 71 36 805
3 c918 3 913 3 1060 -69 68 -34 104 -61 168 -124 89 -88 120 -140 166 -275 23
-66 31 -110 35 -197 l6 -113 48 0 c71 0 145 -18 224 -55 74 -34 166 -109 188
-153 7 -15 19 -26 26 -24 7 1 11 -3 9 -10 -3 -7 5 -31 17 -53 30 -53 55 -158
55 -226 0 -185 -116 -367 -276 -435 l-69 -29 -951 -3 -951 -2 -6 87 c-3 49
-15 118 -25 154 l-18 66 34 -23 c78 -53 191 -57 261 -11 42 28 59 64 45 94 -6
14 -9 11 -12 -14 -9 -80 -143 -119 -250 -73 -29 12 -52 27 -52 33 0 6 -15 24
-33 41 -18 17 -53 57 -77 89 -24 33 -73 85 -108 117 -64 57 -64 58 -53 92 13
40 127 229 144 240 6 4 17 -3 26 -15 8 -12 16 -24 17 -26 2 -2 14 3 27 12 17
11 65 17 173 22 94 5 159 13 176 21 41 21 61 67 53 121 l-6 45 -57 -6 c-118
-12 -698 -18 -775 -8 -86 11 -163 44 -215 92 -18 16 -35 30 -38 30 -11 0 51
-103 84 -139 35 -40 4 -39 -72 2 l-65 34 -6 -25 c-3 -14 -2 -29 3 -34 5 -5 62
-31 128 -59 65 -28 124 -53 131 -55 6 -3 14 4 18 15 3 12 16 26 27 32 16 9 24
7 39 -8 11 -10 21 -29 24 -42 4 -24 -39 -121 -54 -121 -4 0 -23 8 -42 17 -86
43 -325 140 -331 134 -4 -3 -9 -17 -13 -31 -6 -24 -1 -27 97 -67 57 -23 144
-59 194 -80 l91 -38 -141 4 c-135 3 -143 5 -216 38 -41 19 -124 48 -185 65
-60 16 -111 31 -113 33 -2 2 29 132 44 183 3 12 3 22 -1 22 -5 0 -62 11 -129
25 -67 14 -179 31 -250 39 -70 8 -130 17 -132 19 -2 2 -1 70 3 152 l6 148 88
-6 c92 -7 99 -4 99 42 0 19 -11 21 -257 37 l-103 7 0 -250 0 -251 78 -6 c42
-3 142 -14 221 -23 l143 -16 -5 -44 c-2 -24 -6 -46 -8 -47 -2 -2 -26 0 -54 4
-193 31 -576 35 -829 9 -111 -11 -116 -9 -116 52 0 36 1 37 43 43 23 3 123 10
222 16 99 6 186 13 193 15 9 3 12 63 12 251 l0 246 -137 -6 c-76 -4 -162 -9
-190 -13 -51 -5 -53 -7 -53 -35 l0 -30 110 7 110 8 2 -137 c1 -75 2 -146 2
-158 1 -20 -5 -23 -44 -26 -74 -4 -308 -31 -423 -49 l-108 -16 7 -41 c3 -23
15 -69 26 -104 19 -63 18 -82 -7 -82 -13 0 -175 -54 -295 -98 -39 -14 -87 -21
-166 -24 l-110 -3 -16 35 c-34 74 -186 427 -202 468 l-16 43 112 53 c218 103
509 204 527 182 5 -6 17 -36 26 -66 10 -30 21 -59 26 -64 4 -4 30 -1 58 9 57
19 57 19 37 113 -14 71 -13 73 45 76 28 1 33 -3 41 -29 10 -35 54 -243 63
-298 l6 -39 52 8 c29 4 99 10 157 13 l105 6 0 65 0 65 -80 -3 c-44 -2 -91 -5
-105 -8 -26 -5 -26 -5 -39 108 -7 62 -14 117 -14 122 -3 14 56 22 231 35 269
19 492 12 775 -25 l49 -7 -6 -46 c-4 -25 -9 -80 -13 -122 l-6 -77 -83 6 -84 5
0 -52 c0 -28 1 -51 3 -51 1 0 57 -7 122 -15 140 -17 134 -17 116 -6 -11 7 -10
23 7 92 11 46 25 116 31 154 18 109 17 108 59 100 20 -4 40 -9 43 -11 3 -2 0
-36 -6 -76 -7 -40 -11 -75 -9 -77 10 -11 238 -61 244 -54 4 5 14 37 24 73 21
78 40 110 66 110 11 0 24 9 30 19 13 25 13 28 -2 28 -7 0 -76 19 -153 42 -135
40 -369 86 -580 112 -168 21 -580 16 -770 -10 -491 -66 -930 -211 -1355 -446
-300 -166 -555 -359 -795 -600 -161 -161 -214 -224 -350 -409 -348 -479 -581
-1098 -661 -1756 -24 -196 -24 -562 -1 -755 23 -191 63 -403 101 -543 l31
-117 94 -3 c79 -2 93 -1 88 12 -16 41 -77 241 -77 252 0 6 8 15 17 19 53 21
200 69 286 92 l99 26 -7 36 c-4 20 -8 38 -10 39 -4 4 -40 -3 -245 -52 -79 -19
-146 -33 -149 -31 -9 10 -41 195 -57 326 -26 224 -13 578 31 827 7 38 7 38
162 15 l113 -17 0 -44 0 -44 -89 7 -90 8 -6 -26 c-4 -14 -5 -36 -3 -48 3 -23
8 -24 138 -35 74 -6 136 -11 137 -10 7 5 51 272 45 277 -4 3 -56 16 -117 28
-60 12 -141 30 -180 39 -80 21 -77 8 -44 157 16 69 116 422 123 432 3 4 234
-64 289 -85 74 -28 81 -28 97 6 8 15 20 35 28 44 12 14 11 18 -10 32 -28 18
-311 136 -326 136 -25 0 -20 25 24 120 149 327 303 561 525 797 59 63 60 64
84 49 24 -16 80 -13 91 5 3 5 -13 33 -36 62 -22 30 -40 60 -39 68 0 8 33 39
72 70 40 31 123 97 184 147 183 147 569 392 593 377 5 -3 47 -81 94 -173 46
-92 102 -202 125 -245 23 -43 39 -83 36 -87 -7 -11 -83 -35 -88 -29 -2 2 -50
95 -107 205 l-103 202 -31 -18 c-262 -149 -626 -420 -626 -465 0 -7 8 -20 19
-29 18 -16 21 -15 71 31 99 90 222 184 372 283 83 55 154 100 159 100 15 0
125 -192 168 -292 19 -45 19 -46 0 -41 -10 3 -30 -2 -44 -11 -29 -19 -18 -32
-109 133 l-49 89 -51 -36 c-122 -85 -285 -212 -353 -276 l-74 -69 43 -44 c23
-23 46 -43 51 -43 4 0 45 31 90 69 98 82 308 241 319 241 11 0 88 -119 88
-135 0 -6 -9 -21 -20 -33 l-21 -22 -32 30 c-18 16 -35 30 -39 30 -12 0 -217
-167 -288 -234 -116 -110 -93 -110 -200 -2 -51 53 -97 93 -102 90 -21 -13 1
-42 118 -160 l125 -126 -23 -27 c-13 -14 -24 -28 -26 -31 -2 -3 -16 11 -32 30
l-28 34 -28 -34 c-66 -78 -58 -77 -121 -20 -30 28 -68 57 -84 66 -26 13 -30
13 -35 -1 -4 -9 -5 -17 -3 -19 97 -81 222 -176 228 -174 5 2 55 53 112 115
134 144 363 352 375 341 4 -4 -26 -75 -68 -164 -5 -12 -36 -45 -69 -73 -77
-68 -259 -267 -325 -357 -223 -302 -404 -694 -483 -1049 -70 -316 -75 -361
-75 -620 -1 -413 54 -717 187 -1045 17 -41 31 -93 32 -115 1 -22 5 -61 9 -87
l8 -47 -699 -3 -699 -3 -43 -28 c-75 -50 -100 -123 -67 -200 32 -77 139 -122
226 -94 l45 15 -67 -5 c-55 -5 -74 -2 -112 17 -55 26 -87 78 -85 137 1 27 3
31 6 13 7 -37 23 -49 23 -17 0 46 26 83 72 103 40 17 82 19 558 21 489 2 575
4 715 17 44 4 50 3 25 -3 -29 -7 -31 -9 -10 -10 14 -1 35 -4 48 -7 16 -5 22
-2 22 10 0 15 3 14 21 -3 15 -14 19 -26 14 -43 -9 -30 -43 -66 -77 -84 -16 -8
-27 -22 -26 -32 1 -9 0 -29 0 -44 l-2 -28 -110 0 c-106 0 -111 -1 -140 -27
-22 -20 -33 -40 -37 -70 -5 -36 -2 -45 21 -68 25 -24 32 -26 74 -20 26 4 54
13 62 20 8 7 57 34 107 60 51 26 106 62 122 80 l29 34 53 -77 c60 -87 205
-278 274 -363 33 -41 47 -68 50 -95 2 -22 0 -32 -5 -24 -5 8 -8 -1 -7 -23 1
-45 11 -47 32 -8 8 16 29 40 46 54 l31 24 -108 130 c-137 163 -230 294 -289
405 -40 75 -44 90 -34 109 7 13 9 40 5 68 l-6 46 36 -60 c68 -113 222 -340
274 -405 29 -36 91 -109 138 -162 81 -90 90 -96 126 -97 116 -3 264 -90 271
-161 1 -8 9 -39 18 -69 42 -137 2 -286 -100 -370 -74 -61 -154 -88 -333 -111
-106 -13 -250 -49 -297 -73 -47 -25 -122 -103 -143 -150 -29 -63 -26 -134 7
-185 32 -49 52 -57 23 -9 -14 23 -19 48 -18 87 l1 55 7 -50 c6 -42 7 -45 8
-15 8 159 116 245 336 265 l74 7 23 -31 c15 -21 31 -31 48 -31 21 0 23 2 11
10 -26 17 201 12 251 -5 24 -9 49 -13 55 -11 7 3 18 -9 24 -25 7 -16 17 -29
22 -29 6 0 5 7 -2 15 -7 8 -8 15 -2 15 13 0 36 -29 29 -37 -4 -3 -2 -12 4 -19
6 -8 9 -21 5 -29 -3 -9 -2 -14 3 -11 5 3 9 -4 9 -17 0 -12 5 -44 12 -72 34
-150 -54 -314 -210 -389 l-65 -31 -1060 0 -1060 0 -78 37 c-196 94 -306 287
-277 488 24 168 102 291 242 384 94 63 155 79 314 84 l141 4 6 82 c12 173 107
363 243 484 l57 51 -439 3 -439 3 -67 32 c-116 55 -200 149 -224 250 -47 200
43 410 215 501 83 45 178 56 433 50 115 -3 210 -3 212 -1 2 3 -7 39 -20 82
-48 156 -95 431 -115 671 -14 165 -6 568 15 730 103 806 423 1526 921 2070 69
76 170 178 223 227 619 567 1441 931 2277 1006 94 9 521 6 616 -3z m-2947
-449 c23 -26 15 -64 -27 -127 l-32 -48 -8 34 c-5 19 -15 50 -23 68 -19 45 -18
58 8 76 30 21 61 20 82 -3z m1086 -191 c0 -5 -2 -10 -4 -10 -3 0 -8 5 -11 10
-3 6 -1 10 4 10 6 0 11 -4 11 -10z m3128 -382 c28 9 21 -31 -19 -109 -23 -46
-43 -86 -45 -88 -7 -8 -94 31 -94 41 0 13 40 84 83 147 29 43 31 44 46 24 9
-11 22 -18 29 -15z m-1195 -57 c76 -12 177 -30 225 -41 123 -29 332 -92 332
-99 -1 -3 -24 -23 -53 -43 -29 -21 -70 -53 -92 -72 l-40 -34 -71 24 c-39 13
-121 33 -183 45 -105 21 -112 24 -130 55 -43 73 -139 84 -224 26 -42 -29 -52
-32 -125 -32 -62 0 -83 4 -93 17 -19 22 -88 53 -122 53 -40 0 -104 -36 -121
-68 -11 -21 -23 -28 -48 -30 -74 -5 -251 -47 -329 -77 -11 -4 -33 8 -63 34
-25 22 -71 55 -101 73 -30 18 -55 36 -55 40 0 10 142 54 254 79 169 38 267 53
471 73 98 10 437 -4 568 -23z m-4043 -36 c15 -8 37 -26 48 -40 19 -24 21 -25
57 -9 112 47 225 -70 154 -160 -16 -20 -17 -26 -6 -26 23 0 77 -74 84 -113 3
-22 -1 -46 -12 -67 -11 -21 -15 -44 -11 -63 12 -58 -46 -101 -125 -95 -32 3
-34 1 -39 -32 -11 -73 -120 -106 -186 -55 -18 14 -35 34 -39 45 -5 16 -10 18
-32 9 -38 -14 -116 -13 -141 2 -31 19 -47 56 -45 105 1 34 -2 44 -18 49 -28 9
-59 54 -59 86 0 15 11 41 24 57 22 25 24 35 19 83 -5 53 -4 56 27 82 24 20 42
27 76 27 41 0 44 2 44 28 0 76 104 126 180 87z m2582 -87 l53 -13 -40 -2
c-100 -7 -205 -25 -255 -43 -30 -11 -57 -20 -60 -20 -3 0 1 -4 8 -9 10 -6 4
-10 -18 -14 -17 -4 -29 -11 -25 -17 3 -5 -3 -10 -14 -10 -11 0 -24 -6 -28 -12
-4 -7 -33 -30 -64 -51 -31 -20 -68 -50 -82 -65 -36 -38 -54 -52 -60 -46 -7 8
-81 -122 -103 -180 -22 -61 -29 -47 -15 31 32 176 192 355 377 422 108 40 232
51 326 29z m2423 -6 c18 -10 16 -11 -11 -6 -67 13 -263 -29 -343 -74 -96 -52
-223 -165 -273 -242 -24 -38 -29 -20 -8 27 59 133 207 257 353 298 61 17 251
15 282 -3z m-1470 -11 c48 -21 119 -99 137 -147 7 -19 14 -34 18 -34 3 1 15
22 27 49 72 152 258 203 304 83 21 -55 -34 -152 -106 -186 -19 -9 -35 -19 -35
-22 0 -3 22 -3 49 1 57 8 204 -15 301 -47 90 -29 191 -81 282 -144 43 -30 81
-54 86 -54 5 0 16 7 23 16 26 31 90 65 143 76 75 15 152 -9 213 -65 60 -55 85
-107 91 -190 6 -82 -14 -142 -69 -209 -22 -26 -39 -49 -39 -52 0 -4 25 -46 55
-96 88 -141 198 -384 246 -543 27 -87 32 -123 36 -244 5 -131 4 -148 -21 -232
-30 -106 -61 -172 -121 -257 -55 -76 -195 -209 -268 -252 -114 -69 -276 -126
-414 -147 -41 -6 -43 -6 -43 18 0 16 7 27 18 30 9 3 38 10 63 17 35 9 46 16
44 29 -2 9 -4 19 -4 22 -1 3 -14 22 -30 42 -21 27 -31 33 -40 24 -8 -8 -11 -6
-11 9 0 16 -2 17 -10 4 -7 -11 -10 -2 -10 33 0 26 -4 47 -10 47 -5 0 -10 15
-9 33 1 30 1 31 9 7 6 -17 8 -19 9 -7 1 24 -51 126 -82 159 -13 14 -39 34 -58
45 -32 17 -72 18 -602 21 -397 2 -580 -1 -610 -9 -53 -14 -131 -92 -146 -146
-6 -21 -11 -118 -11 -216 0 -165 -1 -178 -17 -173 -10 2 -44 10 -76 16 -229
45 -469 178 -593 328 -63 76 -147 238 -169 327 -23 90 -30 239 -16 336 24 167
129 423 268 656 40 67 73 125 73 129 0 3 -12 20 -27 38 -48 57 -73 124 -73
199 0 37 7 83 15 103 71 170 288 222 418 100 29 -27 43 -32 49 -17 5 12 144
104 207 136 30 15 102 43 160 62 86 29 126 36 213 41 l108 5 -44 28 c-51 34
-91 112 -81 159 16 71 98 99 180 61z m-2319 -152 c19 -22 19 -22 -3 -8 -13 8
-23 17 -23 21 0 12 6 9 26 -13z m-266 -212 c0 -2 -12 -14 -27 -28 l-28 -24 24
28 c23 25 31 32 31 24z m884 -294 c4 -32 14 -84 23 -116 14 -51 14 -59 1 -75
-126 -147 -166 -198 -235 -299 -159 -233 -276 -491 -348 -765 -62 -240 -79
-365 -79 -618 -1 -248 6 -318 61 -565 57 -261 169 -534 314 -761 228 -361 595
-678 1031 -892 l177 -87 3 -40 c3 -41 8 -45 79 -59 17 -4 39 -25 64 -62 22
-31 53 -65 70 -75 115 -71 -308 59 -510 157 -261 125 -494 295 -747 546 -387
386 -633 881 -725 1463 -22 138 -25 576 -5 700 42 256 131 576 208 745 97 211
262 487 363 605 73 85 234 255 242 255 4 0 10 -26 13 -57z m4567 -286 c17 -32
29 -60 26 -63 -5 -5 -97 149 -97 162 1 15 37 -37 71 -99z m209 -6 c4 6 13 8
19 5 6 -4 11 -2 11 5 0 37 82 -111 105 -188 7 -25 -17 -40 -190 -113 -149 -63
-138 -53 -118 -103 9 -23 17 -43 18 -45 1 -1 31 11 66 27 59 26 299 113 299
108 0 -1 23 -67 51 -147 42 -120 129 -418 129 -441 0 -3 -35 -14 -77 -23 -43
-10 -90 -22 -105 -26 -26 -8 -28 -6 -38 28 -15 56 -14 57 46 76 l56 18 -7 36
c-10 56 -107 342 -115 342 -4 0 -81 -27 -171 -60 -90 -34 -168 -62 -173 -63
-5 -1 -34 59 -66 134 -60 142 -83 214 -60 193 9 -9 17 -7 32 8 l21 21 16 -22
17 -22 117 51 c65 27 122 50 127 50 18 0 11 34 -20 98 -35 74 -36 79 -14 57
13 -12 19 -13 24 -4z m362 -16 c14 -17 31 -41 37 -53 20 -37 23 -19 5 24 -14
33 -14 37 -1 25 42 -35 140 -274 214 -526 39 -132 94 -385 92 -425 -1 -19 -2
-21 -5 -5 -3 11 -9 38 -15 60 -5 22 -11 49 -14 60 -11 56 -60 233 -63 230 -3
-2 5 -44 17 -92 33 -136 60 -277 55 -285 -3 -5 5 -8 18 -9 22 0 22 -1 3 -9
-14 -6 -3 -9 40 -10 95 -1 230 -36 330 -84 113 -55 191 -133 225 -223 31 -82
25 -200 -13 -265 -36 -61 -120 -136 -199 -176 -85 -43 -234 -74 -341 -70 l-82
3 65 11 65 11 -53 2 c-78 2 -55 21 25 21 37 0 63 3 60 7 -4 3 24 14 63 24 77
20 110 35 110 50 0 8 -116 5 -195 -5 -5 0 -11 12 -13 28 -2 19 -6 25 -11 17
-5 -8 -8 -1 -7 18 1 29 2 30 66 36 95 9 95 9 95 25 0 13 -20 14 -127 11 -127
-3 -127 -3 -132 20 -3 13 -12 67 -21 119 -9 52 -18 103 -20 114 -2 11 5 26 18
37 27 22 18 33 -21 24 -29 -6 -29 -7 -18 -37 8 -24 8 -32 -2 -35 -6 -3 -10 -9
-6 -14 9 -14 -4 -10 -26 8 -23 20 -26 43 -8 61 9 9 5 12 -22 12 -35 0 -70 23
-70 47 0 7 9 13 21 13 11 0 17 5 14 10 -9 14 -42 12 -48 -2 -4 -9 -15 -2 -34
18 -15 17 -41 39 -57 49 l-30 18 45 18 c24 10 38 18 31 18 -7 1 -28 -5 -46
-13 -29 -12 -38 -12 -61 0 -53 27 -35 6 31 -36 87 -57 136 -125 175 -242 78
-233 12 -453 -186 -615 -122 -100 -324 -139 -476 -93 -113 34 -184 75 -253
144 -68 69 -115 149 -141 240 -24 83 -17 226 17 324 l25 73 -23 122 c-61 318
-132 525 -282 822 -33 66 -85 158 -116 204 -54 81 -73 115 -40 75 11 -13 17
-15 20 -6 3 6 13 12 21 12 23 0 76 59 69 77 -4 9 -1 13 6 10 7 -2 12 -15 10
-28 -1 -16 1 -20 7 -11 6 10 22 -3 58 -50 149 -187 277 -449 362 -742 44 -149
75 -292 67 -305 -3 -5 29 9 72 30 51 26 105 44 162 54 382 66 469 75 598 63
46 -5 87 -7 89 -4 8 8 -45 246 -82 375 -44 151 -100 311 -169 481 -30 74 -52
138 -50 142 11 17 52 2 76 -27z m898 -19 c0 -9 16 -11 55 -8 50 4 57 2 85 -26
24 -24 30 -39 30 -72 0 -30 7 -50 25 -72 30 -36 32 -72 5 -116 -13 -21 -20
-50 -20 -82 0 -41 -5 -55 -32 -85 -31 -36 -33 -36 -95 -33 -64 3 -71 0 -53
-18 15 -15 -3 -57 -36 -83 -18 -14 -41 -21 -70 -21 -37 0 -48 5 -76 36 -18 20
-37 42 -41 50 -6 10 -13 12 -27 4 -10 -5 -37 -10 -60 -10 -59 0 -103 44 -99
99 2 30 -3 46 -24 70 -15 18 -30 43 -33 55 -8 32 19 91 50 111 20 14 24 21 16
35 -17 31 -12 86 11 111 14 17 22 20 25 12 8 -17 24 -16 24 1 0 10 11 13 35
12 19 -1 35 2 35 7 0 5 8 7 18 5 9 -2 22 5 29 17 11 18 12 18 13 2 0 -27 53
-173 58 -159 2 6 -1 28 -7 49 -6 21 -11 57 -11 80 0 37 3 42 31 52 37 13 53 6
46 -20 -3 -11 -2 -17 3 -14 4 3 10 -11 12 -30 2 -19 0 -36 -5 -38 -5 -1 -12
-22 -17 -45 -6 -34 -5 -42 8 -42 8 0 13 3 9 6 -8 9 19 81 43 111 11 14 17 30
13 36 -4 6 -1 7 7 2 9 -6 10 -2 5 16 -4 13 -12 26 -16 27 -5 2 -9 9 -9 15 1
16 40 -32 40 -47z m-1780 -2 c0 -8 19 -47 41 -86 80 -136 181 -359 233 -512 4
-11 12 -16 21 -12 43 16 315 96 328 96 11 0 27 -34 51 -108 20 -59 36 -115 36
-124 0 -12 -11 -19 -35 -24 -50 -9 -61 -1 -69 46 -13 83 -9 82 -153 40 -70
-21 -128 -41 -128 -46 0 -5 13 -59 28 -120 36 -145 35 -150 -9 -164 -20 -7
-39 -8 -44 -4 -4 5 -15 41 -24 79 -72 301 -210 641 -358 883 -12 20 -15 32 -8
30 7 -2 15 3 18 11 3 9 0 11 -8 6 -9 -6 -11 -4 -6 4 6 9 13 8 27 -5 18 -16 19
-16 19 0 0 9 5 14 10 11 6 -3 10 -1 10 4 0 6 5 11 10 11 6 0 10 -7 10 -16z
m-6352 -83 c70 -50 93 -158 49 -236 -39 -70 -129 -103 -204 -74 -61 23 -123
108 -123 170 0 52 37 116 83 144 55 34 145 32 195 -4z m6011 -911 c16 -17 31
-39 33 -48 8 -29 -10 -62 -42 -80 -16 -9 -30 -23 -30 -29 0 -20 -10 -16 -51
25 -33 31 -39 43 -39 80 0 37 4 45 33 62 44 27 62 25 96 -10z m-138 -119 c27
-27 39 -61 22 -61 -5 0 -19 9 -33 20 -37 29 -74 25 -115 -11 -20 -18 -38 -29
-42 -26 -12 12 9 77 30 92 12 8 41 15 65 15 35 0 49 -6 73 -29z m-3637 -35
c40 -17 72 -56 88 -107 9 -33 8 -45 -7 -80 -22 -49 -49 -69 -90 -69 l-30 1 31
13 c70 31 86 112 33 165 -17 17 -41 31 -54 31 -29 0 -80 -42 -101 -82 -18 -34
-28 -30 -44 18 -11 31 -10 40 7 62 23 30 79 62 111 62 12 0 37 -6 56 -14z
m3595 -38 c10 -27 -12 -58 -41 -58 -13 0 -18 7 -18 28 0 50 43 71 59 30z
m-2417 -25 c-12 -2 -20 -9 -17 -14 6 -8 -10 -13 -42 -12 -6 0 -9 -6 -6 -13 3
-8 1 -14 -5 -14 -6 0 -8 -10 -5 -22 3 -16 2 -19 -4 -10 -7 9 -15 3 -29 -23
-15 -28 -20 -32 -25 -18 -5 16 -7 15 -18 -5 -7 -13 -16 -42 -21 -65 l-8 -42
-1 45 c-1 64 14 109 51 148 40 42 61 51 113 50 22 0 30 -3 17 -5z m2778 -32
c67 -49 86 -120 50 -191 -25 -49 -55 -70 -100 -69 l-35 1 35 10 c69 19 108 85
90 149 -12 41 -36 58 -81 59 -43 0 -85 -29 -102 -73 l-13 -31 -22 38 c-32 54
-13 97 55 122 44 16 88 11 123 -15z m-3966 -13 c14 -23 -25 -61 -57 -56 -31 4
-34 42 -5 62 27 19 47 17 62 -6z m-174 -40 c18 -28 54 -81 81 -116 27 -36 49
-70 49 -77 0 -13 -38 -51 -44 -44 -2 2 -13 22 -24 45 -11 22 -28 47 -37 54
-10 9 -4 -10 16 -48 38 -74 36 -78 -65 -132 -71 -38 -90 -61 -28 -34 66 29 71
28 82 -2 6 -16 26 -41 43 -56 21 -18 27 -28 17 -29 -27 -3 -44 3 -71 22 -39
27 -44 10 -8 -27 l31 -32 -28 -15 c-16 -8 -46 -17 -66 -21 -20 -4 -47 -15 -60
-25 -20 -17 -21 -21 -9 -44 8 -14 19 -28 26 -31 7 -2 50 11 96 30 116 48 117
48 89 25 -14 -11 -29 -21 -35 -21 -5 0 -39 -14 -73 -30 -35 -17 -71 -30 -80
-29 -18 0 -122 130 -130 162 -4 16 -11 18 -39 14 l-33 -6 -46 91 c-25 50 -57
109 -70 130 -13 20 -24 41 -24 46 0 5 28 22 62 38 34 16 86 46 115 66 30 21
87 56 127 78 41 23 80 47 86 55 7 8 14 15 15 15 2 0 18 -23 35 -52z m3850 1
c-7 -16 -25 -36 -41 -44 -43 -23 -43 -18 1 23 22 22 40 47 41 58 0 11 3 14 6
6 3 -7 -1 -26 -7 -43z m-2225 -63 c55 -87 54 -86 258 -86 210 0 222 4 268 85
l31 55 110 0 c122 0 164 -13 195 -58 16 -25 18 -59 21 -389 l3 -363 -84 0 -84
0 -7 73 c-10 113 -26 177 -58 241 -30 59 -104 143 -148 166 -14 7 3 -12 36
-43 72 -66 110 -132 129 -224 20 -92 20 -243 0 -269 -23 -30 -35 -1 -28 71 3
33 0 94 -6 135 -41 273 -296 424 -525 311 -178 -87 -237 -241 -191 -495 13
-71 15 -100 7 -108 -12 -12 -13 -9 -49 87 -8 22 -18 87 -23 145 l-7 105 -1
-97 -2 -98 -95 0 -95 0 0 350 c0 369 3 394 46 431 26 23 45 27 162 28 l102 1
35 -54z m2489 28 c7 -17 -9 -54 -24 -54 -4 0 -15 -3 -24 -6 -12 -5 -16 1 -16
23 0 16 5 34 12 41 17 17 45 15 52 -4z m-204 -13 c0 -4 -29 -27 -64 -49 -35
-23 -103 -83 -151 -134 -74 -78 -87 -89 -83 -65 5 25 -7 117 -27 206 -4 18 -3
31 3 31 11 0 42 -127 42 -171 0 -35 12 -37 33 -5 26 38 124 128 180 164 53 33
67 38 67 23z m-3644 -138 c-3 -42 -6 -89 -6 -105 0 -15 -4 -28 -10 -28 -6 0
-10 42 -10 105 0 91 2 105 16 105 15 0 16 -10 10 -77z m3634 21 c0 -28 -31
-49 -48 -32 -16 16 -15 28 4 49 20 23 44 14 44 -17z m66 -99 c-9 -14 -21 -25
-27 -25 -6 0 -1 13 10 29 12 16 22 35 22 43 1 7 3 5 6 -5 3 -10 -3 -29 -11
-42z m-3754 -36 c33 -48 58 -63 58 -34 0 21 30 19 46 -2 18 -25 17 -32 -4 -26
-10 2 -24 -3 -31 -11 -8 -9 -18 -16 -23 -16 -5 0 -35 25 -66 55 -31 30 -63 55
-70 55 -20 0 2 -35 38 -60 16 -12 30 -26 30 -31 0 -21 -91 -4 -145 28 -19 11
-16 15 40 66 69 63 68 63 127 -24z m3585 11 c42 -25 56 -54 48 -98 -7 -39 -32
-82 -48 -82 -5 0 -3 8 6 18 9 10 22 33 28 50 14 40 -7 77 -54 97 -27 12 -35
11 -54 -1 -34 -21 -39 -17 -13 11 28 30 45 31 87 5z m-3169 -125 c-49 -46 -88
-90 -88 -97 0 -7 -9 -3 -22 9 -22 22 -22 22 -2 44 10 12 55 50 99 85 56 45 82
61 90 53 7 -7 -16 -35 -77 -94z m-3013 45 c16 -17 15 -21 0 -54 -28 -59 -38
-61 -74 -10 -35 50 -34 70 1 83 28 10 52 4 73 -19z m6145 13 c0 -5 -4 -15 -10
-23 -11 -18 -25 -7 -17 15 6 15 27 21 27 8z m-1712 -38 c67 -36 126 -97 157
-160 31 -62 51 -198 36 -238 l-11 -28 -330 2 c-274 2 -330 4 -335 16 -10 29
-5 161 10 209 21 71 68 138 124 173 78 50 117 61 211 58 71 -3 93 -8 138 -32z
m1237 15 c3 -5 3 -15 -1 -21 -6 -11 -23 6 -24 24 0 10 18 9 25 -3z m-2880 -41
c19 -17 35 -36 35 -43 0 -16 -106 -116 -123 -116 -7 0 -24 11 -36 24 l-23 25
35 31 c20 17 44 49 53 71 10 21 19 39 21 39 1 0 18 -14 38 -31z m-120 -21 c11
-10 -7 -25 -43 -34 -16 -5 -30 0 -48 17 -13 12 -24 26 -24 30 0 11 102 -1 115
-13z m252 -128 c37 -41 78 -90 91 -107 l23 -33 74 7 c88 7 180 -9 250 -44 63
-31 84 -51 30 -28 -78 33 -109 37 -235 31 -330 -17 -391 -18 -403 -8 -17 13
-134 15 -142 2 -3 -6 -11 -8 -16 -5 -5 4 -9 1 -9 -5 0 -6 -5 -8 -10 -5 -7 4
-6 14 2 28 10 20 10 21 -6 8 -10 -8 -15 -23 -13 -32 3 -10 -1 -20 -9 -23 -8
-3 -11 0 -7 10 25 65 -106 -118 -136 -191 -38 -91 -36 -275 4 -358 10 -21 15
-40 13 -43 -3 -2 -17 23 -32 56 -94 209 -31 424 192 649 69 69 74 73 90 57 15
-15 15 -18 2 -27 -13 -9 -13 -10 0 -7 8 2 34 -16 56 -40 l42 -42 98 1 c106 1
157 10 136 23 -6 4 -17 4 -24 0 -8 -5 -9 -2 -5 10 4 9 3 15 -2 11 -6 -3 -15 3
-21 12 -11 16 -11 16 -5 -2 5 -17 3 -17 -22 5 -15 14 -31 29 -34 34 -4 5 -12
6 -18 2 -6 -4 -9 -1 -5 7 8 22 -26 29 -52 12 -13 -9 -24 -11 -24 -6 0 5 5 13
10 16 6 3 10 10 10 16 0 5 -14 -3 -30 -18 l-30 -27 35 -36 c19 -20 35 -39 35
-43 0 -18 -21 -3 -54 38 l-37 45 43 46 c24 25 47 54 52 65 5 11 13 18 17 17 4
-2 38 -37 76 -78z m5319 36 c-4 -23 -2 -37 6 -42 14 -9 -14 -22 -47 -23 -17 0
-18 1 -5 12 9 7 15 22 14 34 -1 12 2 20 7 18 4 -3 10 4 14 15 10 33 18 23 11
-14z m-1928 -56 c34 -31 62 -48 71 -45 10 4 37 -17 76 -58 l62 -65 -64 -57
-63 -56 -12 26 c-11 24 -8 29 32 70 24 25 41 47 38 50 -3 4 -23 -14 -43 -39
-21 -26 -42 -46 -49 -46 -6 0 -21 -15 -34 -34 -12 -18 -34 -44 -48 -57 l-25
-23 -102 101 c-56 55 -126 119 -156 142 l-55 43 35 -4 c28 -2 39 3 62 29 16
18 26 37 23 42 -4 5 -2 12 2 15 5 3 28 -14 51 -38 l43 -44 -31 -46 c-18 -25
-30 -46 -27 -46 3 0 18 18 32 40 l26 40 28 -23 c15 -12 51 -42 79 -65 28 -24
49 -38 45 -30 -3 7 -30 33 -60 58 -80 65 -82 72 -37 125 20 25 39 45 41 45 2
0 29 -23 60 -50z m-7 33 c13 -16 12 -17 -3 -4 -10 7 -18 15 -18 17 0 8 8 3 21
-13z m-141 -15 c0 11 30 25 37 18 6 -6 -26 -66 -35 -66 -4 0 -17 16 -30 36
l-23 35 26 -17 c14 -9 25 -12 25 -6z m215 -56 c-7 -7 -55 39 -55 52 0 5 13 -3
30 -19 16 -16 28 -31 25 -33z m365 -1 c17 -27 51 -68 76 -91 50 -46 50 -31 5
-195 -38 -143 -81 -261 -136 -381 -25 -53 -45 -100 -45 -105 0 -4 9 -11 21
-14 32 -10 149 -116 196 -176 53 -69 107 -178 128 -257 29 -112 19 -291 -22
-396 -109 -278 -446 -452 -728 -377 -172 46 -283 126 -388 280 -92 134 -122
237 -115 388 12 224 125 416 310 526 93 55 176 79 299 84 l107 5 55 117 c92
193 171 436 192 594 3 26 8 47 10 47 1 0 17 -22 35 -49z m-3890 25 c0 -3 -4
-8 -10 -11 -5 -3 -10 -1 -10 4 0 6 5 11 10 11 6 0 10 -2 10 -4z m5210 -86
c-60 -48 -208 -100 -280 -100 -34 1 -34 1 18 20 30 11 86 37 125 59 54 30 83
40 117 40 l45 1 -25 -20z m-1912 -164 c58 -63 67 -82 48 -109 -30 -44 -64 -77
-79 -77 -9 0 -20 -8 -26 -17 -5 -10 -13 -15 -16 -11 -13 12 6 64 40 117 19 29
35 55 35 58 0 3 -11 14 -25 25 -14 11 -30 28 -35 39 -20 36 16 21 58 -25z
m-2347 15 c50 -1 43 9 75 -103 4 -13 0 -16 -21 -12 -26 4 -34 -9 -13 -22 7 -5
8 -3 3 6 -5 9 -4 11 4 6 12 -8 10 -13 -23 -60 -11 -16 -15 -26 -8 -22 7 4 12
1 12 -8 0 -8 2 -20 5 -28 3 -7 -2 -22 -10 -33 -16 -19 -16 -19 -5 3 17 35 1
47 -23 18 -42 -49 -67 -84 -67 -95 0 -6 -6 -11 -13 -11 -7 0 -21 -18 -31 -40
-10 -22 -23 -40 -31 -40 -7 0 -15 -10 -18 -22 -4 -13 -13 -32 -22 -43 -9 -11
-14 -15 -11 -8 4 6 2 15 -4 18 -31 19 -59 -136 -90 -505 -5 -58 -14 -161 -20
-230 -6 -69 -14 -189 -18 -268 -7 -113 -12 -146 -25 -159 -21 -21 -21 -21 -8
97 6 47 15 150 21 230 45 595 80 1084 86 1188 7 120 7 122 -14 122 -12 0 -22
-6 -22 -12 0 -17 -20 13 -20 30 0 10 28 12 133 8 72 -3 153 -5 178 -5z m784
-11 c-38 -10 -551 -12 -596 -3 -70 14 13 18 319 14 169 -2 294 -7 277 -11z
m499 5 c-14 -36 -129 -69 -286 -80 -102 -7 -166 -24 -234 -62 -60 -33 -140
-112 -159 -156 -10 -23 -14 -26 -14 -12 -1 36 37 103 82 149 86 86 148 104
408 125 84 6 126 14 155 29 47 25 55 27 48 7z m1276 -117 c0 -92 -3 -119 -12
-115 -79 31 -98 40 -98 48 0 12 11 11 40 -6 48 -27 50 -23 50 96 0 71 4 108
10 104 6 -4 10 -57 10 -127z m-1597 115 c-7 -2 -21 -2 -30 0 -10 3 -4 5 12 5
17 0 24 -2 18 -5z m157 -3 c19 -12 -86 -12 -115 0 -14 6 -3 9 40 9 33 0 67 -4
75 -9z m2060 -53 c0 -10 7 -26 16 -35 13 -12 15 -28 11 -69 -6 -53 -74 -265
-127 -389 -16 -38 -26 -72 -24 -76 3 -4 18 -8 33 -8 25 0 31 8 74 108 26 59
62 152 81 207 30 90 35 100 57 99 13 -1 90 -17 172 -36 81 -20 149 -32 152
-29 2 4 13 33 25 64 23 62 34 70 44 33 5 -20 11 -24 31 -20 30 5 30 4 4 -101
-19 -73 -24 -85 -43 -85 -11 0 -91 18 -176 39 -85 21 -158 35 -162 32 -4 -4
-19 -39 -32 -79 l-25 -73 27 -10 c15 -6 50 -19 77 -29 49 -17 227 -90 233 -95
5 -4 -66 -181 -117 -290 -59 -124 -131 -255 -142 -255 -4 0 -10 12 -13 26 -6
23 -11 26 -36 21 l-29 -6 74 147 c41 81 83 172 95 202 11 30 26 65 32 78 15
28 11 31 -87 69 -38 14 -81 32 -95 40 -45 23 -56 17 -89 -57 -17 -39 -31 -73
-31 -77 0 -3 -7 -14 -16 -24 -14 -16 -19 -16 -52 -2 -20 8 -66 41 -102 72
l-66 56 57 145 c31 80 61 161 67 180 6 19 27 89 47 154 26 82 40 115 46 105 5
-8 9 -22 9 -32z m-3070 -128 c0 -9 -9 -27 -19 -40 l-19 -24 -14 35 c-14 32
-13 37 6 61 21 26 21 26 33 5 7 -12 12 -28 13 -37z m94 17 c18 -39 20 -62 6
-71 -5 -3 -10 -2 -10 4 0 6 -13 17 -30 26 -34 18 -37 31 -13 57 22 25 28 23
47 -16z m3807 1 c31 8 31 -18 5 -150 -57 -278 -190 -624 -340 -882 -29 -49
-78 -134 -109 -187 -30 -54 -65 -110 -77 -125 -48 -63 -205 -241 -209 -237 -4
4 41 60 108 134 22 25 41 51 41 59 0 8 3 11 6 8 4 -4 20 15 37 41 16 26 35 50
41 54 8 6 7 8 -2 8 -7 0 -15 -7 -19 -16 -5 -13 -9 -12 -28 6 -12 11 -25 17
-30 13 -12 -12 11 31 81 149 174 295 300 603 394 963 41 158 48 177 68 166 8
-5 23 -6 33 -4z m-1597 -68 c-16 -17 -38 -36 -49 -42 -11 -5 0 11 24 36 25 26
47 44 50 42 2 -3 -9 -19 -25 -36z m2376 -11 c0 10 4 10 16 -2 9 -10 13 -24 9
-36 -8 -26 -55 -77 -55 -60 0 9 -5 8 -18 -3 -22 -20 -42 -22 -42 -4 0 8 -4 7
-10 -3 -5 -8 -10 -12 -10 -7 0 15 -4 22 -23 42 -25 26 -40 55 -29 55 5 0 14
-11 20 -25 25 -55 113 -33 120 30 3 21 6 25 13 14 7 -11 9 -11 9 -1z m-2556
-78 c9 -17 25 -30 34 -30 13 0 14 -2 3 -12 -10 -11 -19 -6 -47 24 -19 21 -34
42 -34 48 0 17 26 0 44 -30z m-44 -41 c0 -5 -4 -9 -8 -9 -5 0 -9 7 -9 15 0 8
4 12 9 9 4 -3 8 -9 8 -15z m-260 -2 c0 -7 -7 -22 -15 -33 -13 -17 -14 -16 -4
14 11 33 19 41 19 19z m-55 -114 c-9 -16 -30 -44 -46 -63 -22 -25 -18 -17 11
28 42 62 65 86 35 35z m-1319 -38 c7 -19 14 -36 14 -37 0 -2 -44 -3 -97 -3
-75 0 -107 -4 -134 -18 -63 -31 -116 -85 -148 -149 -26 -51 -31 -73 -31 -133
0 -104 23 -167 85 -229 118 -120 302 -120 433 -2 59 54 84 114 91 220 l6 88
24 -19 c47 -38 35 -180 -24 -273 -54 -86 -167 -155 -271 -166 -269 -28 -479
233 -393 488 57 169 188 265 367 267 63 1 63 1 78 -34z m1743 11 c9 -10 8 -16
-4 -26 -13 -11 -15 -8 -15 14 0 30 3 32 19 12z m-2489 -20 c0 -3 -4 -8 -10
-11 -5 -3 -10 -1 -10 4 0 6 5 11 10 11 6 0 10 -2 10 -4z m-1015 -159 c84 -42
168 -60 295 -60 101 -1 116 -2 80 -9 -129 -26 -362 22 -428 88 -7 8 -22 19
-33 24 -10 6 -19 15 -19 21 0 6 17 -3 38 -19 20 -16 51 -36 67 -45z m1694 66
c12 10 13 9 7 -2 -7 -11 2 -12 48 -8 54 6 57 5 81 -27 14 -18 25 -35 25 -38 0
-2 -27 -2 -60 0 -50 4 -60 2 -60 -12 0 -13 12 -16 69 -16 61 0 72 -3 85 -22 9
-13 16 -43 16 -70 0 -43 -3 -50 -26 -58 -30 -12 -441 -13 -448 -2 -3 4 -2 39
2 78 l7 69 50 1 c94 2 105 4 105 19 0 12 -13 15 -55 15 -42 0 -55 4 -55 15 0
23 36 36 109 37 58 1 68 4 64 17 -5 13 -3 14 7 4 11 -10 17 -10 29 0z m1251
-18 c-7 -8 -17 -15 -23 -15 -6 0 -2 7 9 15 25 19 30 19 14 0z m-2133 -117 c8
-9 8 -53 2 -142 -5 -71 -11 -131 -13 -133 -6 -6 -121 51 -186 92 -36 24 -92
68 -125 98 -55 51 -58 56 -35 57 15 0 31 -4 38 -10 9 -7 9 -7 2 2 -8 9 6 17
52 31 35 10 73 20 85 20 11 1 19 5 17 9 -8 13 16 19 33 9 17 -10 17 -10 -1
-11 -11 0 -17 -3 -13 -6 10 -10 48 7 41 18 -5 7 -1 9 9 5 9 -3 19 -2 22 4 6 9
51 -17 72 -43z m3752 -27 c-18 -45 -90 -171 -99 -171 -11 0 -60 59 -60 72 0 5
25 45 56 89 l55 79 29 -21 c25 -19 27 -25 19 -48z m-1749 -58 c-97 -88 -272
-204 -287 -190 -11 12 10 47 35 60 62 32 97 53 115 68 10 9 47 31 82 49 35 18
72 41 81 51 10 11 19 17 22 14 2 -2 -19 -26 -48 -52z m-1217 -72 l57 -1 0 -81
0 -82 -92 7 c-60 4 -97 11 -107 21 -8 7 -16 39 -19 71 -5 66 3 75 63 69 22 -2
66 -4 98 -4z m288 -1 c23 -13 25 -56 5 -105 -19 -45 -48 -59 -107 -51 l-49 7
0 -31 c0 -25 -4 -30 -24 -30 -27 0 -36 32 -36 142 l0 67 68 4 c37 2 80 4 95 5
16 1 37 -3 48 -8z m2546 -212 c-3 -7 -5 -2 -5 12 0 14 2 19 5 13 2 -7 2 -19 0
-25z m1506 -176 c95 -92 62 -229 -62 -261 -86 -22 -158 5 -192 72 -29 56 -29
116 0 159 66 96 173 108 254 30z m-599 -63 c15 -12 32 -32 36 -45 8 -20 17
-24 50 -24 58 0 90 -33 90 -95 0 -25 7 -57 16 -70 11 -17 14 -35 9 -57 -3 -18
-9 -56 -12 -85 -6 -60 -26 -83 -80 -92 -30 -5 -38 -12 -48 -41 -14 -43 -66
-80 -111 -80 -20 0 -44 10 -63 26 -29 24 -31 30 -26 78 l4 51 -10 -41 c-10
-44 -37 -64 -88 -64 -30 0 -70 24 -58 36 4 4 7 2 7 -4 0 -15 66 -16 75 -2 4 6
-8 10 -28 10 -29 0 -39 6 -56 33 -11 17 -21 26 -21 20 0 -7 -4 -13 -10 -13
-15 0 -12 38 6 65 35 53 124 85 138 49 4 -11 -6 -28 -29 -51 -23 -23 -35 -43
-33 -56 4 -25 28 -35 28 -12 0 23 30 73 48 80 8 3 22 0 30 -7 12 -10 14 -10 8
0 -5 8 0 12 14 12 12 0 24 -9 30 -22 9 -23 9 -22 9 3 1 23 -4 27 -38 33 -64
10 -92 72 -56 124 17 23 12 38 -32 102 -16 23 -16 24 -1 12 15 -12 18 -10 23
15 4 15 8 33 9 38 2 6 14 -23 26 -62 13 -40 28 -73 33 -73 5 0 6 12 3 26 -4
15 -10 40 -13 58 -3 17 -14 40 -25 52 -18 20 -18 21 5 46 49 53 97 62 141 27z
m-2306 -111 c-19 -24 -54 -56 -77 -72 -51 -34 -48 -45 3 -16 43 24 47 24 40 7
-3 -9 8 -17 30 -24 27 -8 33 -8 30 2 -3 7 2 15 11 19 9 3 14 2 10 -3 -7 -12 4
-41 16 -41 5 0 8 5 7 11 -2 6 3 14 10 16 6 3 12 -3 12 -13 0 -9 3 -14 7 -10 4
4 8 15 8 23 0 9 7 18 15 20 12 4 12 2 2 -5 -7 -5 -12 -15 -10 -22 5 -23 -250
-185 -355 -225 -58 -22 -62 -18 -62 62 l0 58 -44 5 -44 5 164 89 c90 49 184
104 209 123 25 18 47 33 49 33 2 0 -12 -19 -31 -42z m2119 -86 c16 -12 20 -21
14 -31 -8 -12 -11 -12 -23 0 -17 17 -30 49 -20 49 4 0 17 -8 29 -18z m-26 -62
c20 -11 27 -40 9 -40 -5 0 -10 4 -10 9 0 5 -9 13 -20 16 -21 7 -28 25 -9 25 6
0 19 -5 30 -10z m-99 -22 c-7 -7 -12 -8 -12 -2 0 14 12 26 19 19 2 -3 -1 -11
-7 -17z m-1720 -54 c-4 -7 -22 -28 -39 -48 -18 -19 -33 -40 -33 -45 0 -6 -7
-7 -17 -4 -11 4 -14 3 -9 -5 4 -7 1 -12 -6 -12 -8 0 -23 -7 -34 -16 -19 -15
-19 -16 1 -10 20 6 20 6 1 -9 -11 -8 -23 -15 -28 -15 -20 0 -15 -11 155 -310
32 -58 60 -106 62 -108 4 -5 135 87 290 201 66 49 126 92 132 94 19 7 44 -22
31 -35 -8 -8 -5 -9 11 -5 11 3 21 3 21 -1 0 -22 -242 -219 -400 -326 -36 -24
-75 -53 -87 -64 -13 -11 -24 -18 -26 -15 -12 15 -88 150 -172 304 -53 99 -100
183 -104 188 -4 4 -29 -4 -55 -18 -26 -14 -53 -25 -61 -25 -7 0 -15 -3 -17 -8
-3 -6 -157 -81 -255 -123 -37 -16 -38 -19 -20 -41 11 -13 33 -7 192 53 99 37
183 68 188 68 11 1 222 -447 214 -455 -2 -2 -64 -33 -139 -68 -143 -69 -291
-128 -423 -169 -44 -14 -87 -28 -96 -31 -13 -6 -21 8 -39 73 -13 45 -28 81
-32 81 -19 0 -153 -33 -160 -39 -4 -3 0 -42 8 -85 17 -86 13 -96 -33 -96 -13
0 -26 -1 -30 -2 -4 -2 -10 11 -14 27 -61 263 -64 278 -68 350 -1 12 -4 16 -9
9 -4 -6 -39 -14 -78 -17 -39 -4 -85 -10 -102 -13 -32 -6 -32 -7 -32 -67 l0
-60 84 7 83 7 12 -101 c16 -148 16 -147 -21 -154 -185 -32 -569 -38 -850 -11
-158 15 -188 21 -188 34 0 9 7 61 15 116 8 55 15 104 15 108 0 4 57 6 128 5
l127 -3 3 63 c2 34 -1 62 -5 62 -4 0 -71 7 -148 15 -77 8 -147 15 -155 15 -12
0 -21 -27 -38 -112 -23 -115 -51 -244 -57 -265 -6 -17 -85 5 -85 25 0 8 5 43
12 78 6 35 9 67 5 70 -3 4 -31 12 -61 19 l-56 13 -11 -41 c-28 -108 -32 -118
-48 -111 -9 3 -34 12 -56 18 -196 62 -361 133 -432 188 -43 33 -53 46 -53 70
0 17 -4 27 -10 23 -5 -3 -10 -1 -10 4 0 6 4 11 8 11 5 0 9 6 10 13 0 6 4 22 7
34 5 16 1 24 -16 34 -26 13 -54 39 -44 39 4 0 0 7 -9 15 -8 8 -21 15 -28 15
-14 0 -88 64 -88 76 0 3 7 4 15 0 8 -3 15 -1 15 3 0 13 40 1 71 -20 41 -29
231 -119 239 -114 4 3 18 29 30 60 24 58 46 70 84 42 17 -12 16 -16 -8 -77
-14 -35 -23 -67 -19 -71 9 -8 124 -42 128 -37 2 2 14 37 28 78 24 70 25 76 9
87 -9 7 -22 17 -29 22 -15 13 -214 101 -228 101 -5 0 -18 -18 -28 -40 -21 -46
-27 -48 -45 -19 -8 12 -9 18 -3 15 7 -4 9 7 7 31 -4 38 20 123 34 123 5 0 77
-30 162 -66 84 -36 158 -68 164 -71 10 -4 49 55 42 63 -2 1 -39 16 -82 34 -43
17 -133 58 -199 91 -66 32 -121 58 -121 57 -13 -25 -58 -88 -62 -88 -3 0 -2 5
1 10 11 17 -10 11 -33 -10 -14 -14 -22 -16 -22 -8 -1 7 -19 -7 -42 -32 -39
-43 -40 -43 -21 -10 65 114 93 170 93 183 0 8 -20 24 -44 36 -53 24 -55 28
-63 87 l-5 47 58 -33 c33 -19 91 -52 129 -75 140 -82 376 -182 568 -239 97
-30 95 -27 73 -115 -8 -31 -17 -72 -20 -92 l-6 -36 98 -16 c54 -9 154 -21 223
-28 68 -6 153 -14 189 -17 l65 -7 -4 -160 c-2 -88 -5 -162 -7 -164 -3 -3 -57
0 -122 6 -64 5 -118 10 -119 9 -1 -1 -4 -16 -7 -33 -7 -38 -1 -39 180 -48 71
-3 150 -8 177 -11 l47 -5 0 251 c0 137 -1 250 -2 250 -2 1 -59 5 -128 9 -69 5
-174 15 -233 22 l-108 12 3 46 c3 39 6 46 23 44 11 -2 79 -10 150 -19 206 -27
675 -19 802 12 22 6 23 3 23 -44 l0 -49 -52 -7 c-29 -3 -107 -9 -173 -12 -66
-3 -139 -7 -162 -10 l-43 -5 0 -251 0 -251 83 6 c45 4 126 10 180 13 l97 7 0
35 0 35 -89 -7 -88 -7 -8 156 c-4 86 -5 159 -2 161 3 3 67 12 143 19 167 18
250 30 369 57 135 29 187 48 181 63 -3 8 -8 30 -12 49 -3 20 -12 36 -19 36 -7
0 -46 -11 -86 -25 -40 -13 -75 -22 -79 -20 -9 5 -35 94 -29 98 2 2 58 20 124
41 268 86 445 170 667 316 115 76 135 86 145 72 7 -8 9 -21 5 -28z m1157 -81
c-17 -21 -35 -38 -80 -78 -21 -19 -15 -9 16 25 46 52 65 69 74 70 2 0 -3 -8
-10 -17z m-1025 -82 c-10 -17 -21 -31 -25 -31 -4 0 -14 -18 -23 -40 -15 -39
-15 -43 4 -80 11 -22 22 -40 25 -40 2 0 38 23 78 50 73 49 94 60 82 40 -4 -6
1 -24 9 -41 19 -37 18 -38 -113 -125 l-84 -57 -18 24 c-32 42 -141 238 -143
256 0 10 11 23 27 31 26 13 30 12 43 -7 15 -20 16 -20 76 24 68 49 92 47 62
-4z m1596 1 c0 -15 -2 -15 -10 -2 -13 20 -13 33 0 25 6 -3 10 -14 10 -23z
m-815 -157 c-71 -69 -164 -151 -207 -182 -42 -32 -75 -60 -73 -62 5 -4 152
101 208 149 31 27 38 30 28 13 -6 -13 -16 -23 -21 -23 -5 0 -7 -6 -5 -13 3 -7
-4 -19 -15 -27 -12 -8 -42 -34 -68 -58 -89 -81 -97 -88 -144 -125 -25 -20 -49
-37 -52 -37 -3 0 -40 -26 -83 -58 -127 -96 -316 -210 -509 -308 -419 -212
-838 -332 -1304 -374 -231 -20 -595 -9 -837 25 -226 33 -581 124 -706 181 -31
14 -30 15 33 9 36 -3 107 -19 158 -36 51 -16 102 -28 115 -28 18 1 19 2 3 6
-10 3 -78 24 -150 48 -149 50 -272 103 -322 141 -30 23 -32 28 -19 41 14 13
37 7 208 -51 431 -146 678 -192 1107 -203 359 -9 607 15 892 87 206 52 320 89
510 166 190 76 261 111 448 222 183 107 265 162 413 276 189 145 249 186 261
178 30 -18 92 17 185 107 35 33 66 61 70 61 3 -1 -52 -57 -124 -125z m-2932 8
c-7 -2 -21 -2 -30 0 -10 3 -4 5 12 5 17 0 24 -2 18 -5z m-1613 -223 c0 -5 -2
-10 -4 -10 -3 0 -8 5 -11 10 -3 6 -1 10 4 10 6 0 11 -4 11 -10z m4016 -718
c-8 -15 -23 -35 -32 -43 -15 -11 -14 -8 3 16 11 17 24 41 28 55 5 14 10 20 12
13 2 -6 -3 -25 -11 -41z m848 -24 c11 -30 -5 -73 -30 -82 -11 -4 -14 8 -14 55
0 52 2 60 17 57 10 -2 22 -15 27 -30z m-931 -35 c-7 -2 -19 -2 -25 0 -7 3 -2
5 12 5 14 0 19 -2 13 -5z"/>
<path d="M3245 8957 c-35 -29 -37 -73 -5 -99 32 -26 65 -22 89 8 26 33 26 55
4 82 -29 33 -57 36 -88 9z"/>
<path d="M4908 8773 c17 -2 47 -2 65 0 17 2 3 4 -33 4 -36 0 -50 -2 -32 -4z"/>
<path d="M5138 8773 c12 -2 32 -2 45 0 12 2 2 4 -23 4 -25 0 -35 -2 -22 -4z"/>
<path d="M5258 8763 c12 -2 30 -2 40 0 9 3 -1 5 -23 4 -22 0 -30 -2 -17 -4z"/>
<path d="M5338 8763 c6 -2 18 -2 25 0 6 3 1 5 -13 5 -14 0 -19 -2 -12 -5z"/>
<path d="M5448 8753 c7 -3 16 -2 19 1 4 3 -2 6 -13 5 -11 0 -14 -3 -6 -6z"/>
<path d="M5520 8739 c25 -4 61 -7 80 -7 l35 0 -30 8 c-16 4 -52 8 -80 8 l-50
-1 45 -8z"/>
<path d="M5795 8699 c22 -6 65 -17 96 -24 30 -8 62 -15 70 -14 23 1 -112 37
-161 43 l-45 5 40 -10z"/>
<path d="M5988 8653 c7 -3 16 -2 19 1 4 3 -2 6 -13 5 -11 0 -14 -3 -6 -6z"/>
<path d="M6028 8643 c7 -3 16 -2 19 1 4 3 -2 6 -13 5 -11 0 -14 -3 -6 -6z"/>
<path d="M6365 8571 c-75 -34 -129 -119 -116 -181 l8 -35 22 50 c61 137 86
142 669 144 362 1 482 9 482 32 0 5 -222 8 -512 9 -477 0 -516 -2 -553 -19z"/>
<path d="M7829 8437 c-37 -12 -85 -35 -108 -50 -59 -39 -127 -131 -152 -206
-93 -279 185 -592 473 -532 138 28 232 97 294 213 38 71 39 76 39 173 0 92 -3
106 -32 168 -43 89 -116 166 -206 213 -64 34 -81 38 -157 41 -69 3 -97 -1
-151 -20z m313 -38 c54 -28 134 -103 165 -156 75 -128 66 -326 -18 -418 -10
-11 -27 -29 -36 -40 -73 -83 -233 -137 -340 -115 -31 7 -64 16 -72 20 -9 4
-34 16 -55 26 -57 28 -139 113 -172 180 -25 51 -29 71 -29 144 0 73 4 93 28
142 41 84 107 152 185 190 60 30 75 33 157 33 77 0 98 -4 148 -27 87 -41 167
-127 195 -209 11 -35 21 -56 22 -47 1 44 -60 156 -112 205 -52 49 -68 62 -95
77 -43 23 -18 19 29 -5z"/>
<path d="M7945 8143 c-122 -18 -157 -189 -54 -265 34 -26 84 -44 73 -27 -3 5
-11 9 -18 9 -42 0 -111 100 -85 124 9 8 11 7 6 -6 -3 -10 -2 -20 2 -22 5 -3
11 15 14 40 6 58 31 93 86 120 34 16 40 22 26 27 -9 4 -17 6 -18 6 -1 -1 -15
-4 -32 -6z"/>
<path d="M8323 8040 c0 -36 2 -50 4 -32 2 17 2 47 0 65 -2 17 -4 3 -4 -33z"/>
<path d="M8025 7698 c-22 -5 -65 -7 -95 -5 -36 4 -46 3 -30 -3 40 -13 122 -10
155 5 35 16 26 17 -30 3z"/>
<path d="M3985 8321 c-142 -49 -304 -123 -305 -138 0 -19 176 -423 184 -423 2
0 66 24 142 53 118 45 180 66 240 82 9 3 9 20 -1 69 -6 37 -14 68 -16 70 -2 2
-17 2 -32 -1 -28 -5 -28 -7 -22 -57 l7 -51 -124 -39 c-68 -21 -132 -39 -142
-40 -16 -1 -31 25 -78 135 -32 75 -61 150 -64 166 -6 29 -3 31 68 61 40 18
123 50 183 71 89 31 111 43 113 60 5 30 -22 27 -153 -18z"/>
<path d="M4237 8246 c-65 -18 -120 -35 -123 -38 -9 -9 28 -88 41 -88 7 0 32 7
56 15 24 9 82 22 128 30 47 9 89 19 95 25 5 5 -1 21 -18 40 -14 17 -26 36 -26
41 0 14 -26 10 -153 -25z"/>
<path d="M5755 8238 c-4 -24 -12 -46 -18 -50 -6 -3 7 -9 29 -13 21 -4 62 -13
91 -20 l51 -13 17 45 c9 24 16 46 14 47 -4 4 -164 46 -173 46 -2 0 -7 -19 -11
-42z"/>
<path d="M6045 8238 c-24 -65 -75 -224 -85 -268 -7 -30 -17 -58 -22 -61 -5 -3
-3 -9 6 -12 20 -8 32 15 55 106 16 62 22 72 41 72 18 0 25 10 41 60 24 76 24
92 0 105 -25 13 -31 13 -36 -2z"/>
<path d="M3956 8154 c-33 -13 -63 -27 -68 -32 -6 -6 44 -156 56 -169 2 -2 102
31 134 43 4 2 -49 168 -56 175 -4 3 -34 -4 -66 -17z"/>
<path d="M5936 7998 c-11 -34 -17 -72 -11 -66 8 8 25 78 19 78 -3 0 -6 -6 -8
-12z"/>
<path d="M8452 7671 c-63 -22 -117 -63 -153 -117 -27 -40 -52 -104 -29 -74 9
12 10 5 6 -30 l-5 -45 19 50 c42 107 153 185 265 185 99 -1 155 -35 209 -130
33 -57 34 -45 2 18 -27 54 -70 100 -106 114 -14 6 -20 12 -13 15 15 5 80 -36
114 -73 59 -64 65 -182 13 -248 -30 -38 -132 -96 -168 -96 -27 1 -98 33 -114
52 -7 9 -14 29 -15 46 -1 23 -5 28 -14 20 -20 -16 -15 -44 12 -77 52 -61 166
-68 252 -15 58 35 103 114 103 178 0 54 -39 135 -81 169 -19 15 -40 32 -48 39
-47 39 -164 48 -249 19z m175 -7 c-3 -3 -12 -4 -19 -1 -8 3 -5 6 6 6 11 1 17
-2 13 -5z"/>
<path d="M7088 7634 c-64 -22 -108 -70 -115 -124 -4 -31 -3 -41 5 -36 7 4 12
1 12 -9 0 -9 5 -13 10 -10 6 3 10 17 10 29 0 32 34 73 83 97 57 30 156 23 224
-15 l48 -27 -39 35 c-50 46 -33 47 27 1 57 -43 81 -76 101 -140 15 -47 16 -47
10 -10 -3 21 -12 52 -20 68 -22 41 -87 103 -136 128 -57 29 -156 35 -220 13z"/>
<path d="M8251 7444 c0 -11 3 -14 6 -6 3 7 2 16 -1 19 -3 4 -6 -2 -5 -13z"/>
<path d="M8782 7415 c0 -16 2 -22 5 -12 2 9 2 23 0 30 -3 6 -5 -1 -5 -18z"/>
<path d="M2514 7268 c-95 -111 -159 -197 -152 -202 1 -2 62 -45 133 -97 171
-123 185 -134 185 -151 0 -7 -32 -65 -71 -127 -39 -62 -68 -119 -65 -126 3 -8
14 -18 24 -24 18 -10 27 2 98 122 43 72 85 141 94 152 33 39 31 43 -37 91 -84
60 -243 192 -243 202 0 5 85 113 136 171 1 1 38 -24 80 -57 43 -34 81 -59 86
-56 17 11 7 31 -39 77 -50 52 -45 65 7 17 46 -43 46 -32 0 24 -22 27 -40 45
-40 42 0 -4 -10 2 -22 14 -12 11 -30 20 -40 20 -10 0 -18 5 -18 10 0 25 -27 2
-116 -102z"/>
<path d="M2103 7278 c-44 -58 -57 -78 -50 -78 5 0 76 93 91 118 18 30 -5 8
-41 -40z"/>
<path d="M1986 7103 c-6 -14 -5 -15 5 -6 7 7 10 15 7 18 -3 3 -9 -2 -12 -12z"/>
<path d="M2250 6904 c-53 -84 -126 -221 -160 -300 l-18 -42 138 -61 c76 -33
140 -61 143 -61 6 0 31 60 26 64 -2 1 -41 25 -86 51 -57 34 -81 54 -80 67 1
10 5 18 10 18 5 0 6 9 2 19 -6 19 49 134 98 206 l22 33 34 -28 34 -29 -36 -63
c-20 -35 -46 -78 -58 -95 l-21 -33 27 -10 c14 -5 30 -10 34 -10 5 0 20 -11 35
-25 15 -14 31 -23 36 -20 4 3 22 30 40 61 17 31 44 74 61 96 16 23 29 46 29
52 0 6 -35 36 -77 66 -42 30 -100 72 -128 92 l-51 36 -54 -84z"/>
<path d="M2423 6361 c-28 -64 -62 -142 -74 -173 -15 -39 -27 -58 -39 -58 -9 0
-91 24 -181 54 -90 29 -167 51 -171 47 -19 -18 -108 -354 -97 -365 10 -10 243
-57 256 -52 7 3 13 17 13 32 0 25 2 26 38 19 20 -3 45 -14 54 -23 17 -16 16
-26 -17 -177 -18 -88 -39 -204 -46 -257 -13 -114 7 -105 -184 -83 -71 8 -149
15 -172 15 -42 0 -43 -1 -43 -34 l0 -34 138 -8 c75 -4 178 -8 227 -8 l90 -1 7
75 c12 115 56 376 80 465 34 132 39 124 -77 156 -166 46 -162 46 -174 2 -6
-21 -11 -46 -11 -56 0 -23 -22 -31 -66 -22 -35 6 -36 7 -29 43 8 46 53 203 59
210 3 2 29 -4 58 -16 61 -23 281 -92 294 -92 5 0 22 35 38 78 42 110 114 282
132 315 9 16 14 30 12 31 -1 2 -16 10 -33 19 l-30 15 -52 -117z"/>
<path d="M2198 5808 c9 -9 15 -9 24 0 9 9 7 12 -12 12 -19 0 -21 -3 -12 -12z"/>
<path d="M1753 4980 c4 -106 8 -195 11 -197 2 -2 19 0 37 4 l33 9 -4 64 c-3
36 -5 103 -5 150 l0 85 155 -4 c85 -1 156 -4 158 -5 1 -2 9 -77 17 -167 14
-156 31 -273 55 -385 11 -49 12 -50 42 -46 29 4 30 7 25 41 -3 20 -15 97 -27
171 -11 74 -24 205 -27 291 l-6 156 -96 6 c-53 4 -159 10 -235 13 l-139 7 6
-193z"/>
<path d="M1920 4944 c0 -27 5 -87 10 -134 7 -58 6 -86 -1 -91 -6 -3 -42 -12
-80 -18 -76 -14 -77 -16 -58 -83 11 -43 9 -43 68 -22 25 8 79 22 120 31 116
23 109 13 95 145 -7 62 -13 134 -13 161 l-1 47 -54 0 c-30 0 -61 3 -70 6 -13
5 -16 -2 -16 -42z"/>
<path d="M2100 4350 c-91 -27 -184 -53 -207 -59 l-42 -11 36 -105 37 -104 161
-3 c88 -2 161 -3 162 -3 4 1 -42 124 -48 130 -4 3 -50 -8 -104 -25 -53 -18
-101 -28 -105 -23 -4 4 -12 23 -19 42 -9 27 -8 36 1 43 18 11 256 88 272 88 8
0 31 -50 57 -126 45 -130 56 -144 109 -144 17 0 17 2 1 33 -9 17 -36 96 -61
174 -39 123 -48 143 -65 142 -11 -1 -94 -23 -185 -49z"/>
<path d="M2500 3405 c-19 -14 -41 -25 -49 -25 -29 0 1 -14 101 -46 57 -19 105
-34 107 -34 2 0 -13 18 -32 39 -20 22 -43 51 -52 65 -21 32 -30 32 -75 1z"/>
<path d="M2110 3134 c-85 -23 -139 -54 -212 -123 -48 -45 -78 -83 -101 -130
-31 -63 -32 -71 -32 -186 0 -117 1 -122 35 -190 92 -183 284 -297 452 -268
178 30 292 151 292 308 0 84 -26 145 -87 207 -95 96 -224 114 -319 44 -37 -26
-36 -41 1 -22 110 58 266 1 317 -114 10 -22 19 -38 21 -36 8 7 -22 74 -49 109
-41 53 -18 46 31 -9 67 -76 81 -163 45 -263 -13 -36 -24 -67 -24 -68 0 -2 -5
-3 -11 -3 -5 0 -8 4 -5 8 2 4 1 14 -5 22 -5 10 -9 11 -9 3 0 -7 -10 -21 -22
-33 -12 -11 -18 -23 -14 -27 4 -5 14 1 22 11 16 22 30 15 20 -10 -4 -9 -9 -14
-12 -11 -3 3 -18 -7 -33 -22 -29 -30 -127 -72 -164 -70 -12 0 6 9 39 19 59 17
124 55 124 72 0 13 -8 10 -50 -21 -44 -32 -151 -57 -201 -47 -18 3 -28 2 -24
-4 3 -6 18 -10 33 -11 15 0 21 -3 14 -6 -30 -12 -136 21 -193 59 -182 122
-243 326 -159 524 26 60 142 174 212 208 79 38 181 53 266 38 68 -11 192 -67
231 -103 12 -11 21 -15 21 -10 0 5 -17 23 -37 40 -21 17 -31 31 -24 31 13 0
98 -63 113 -85 5 -6 8 -6 8 2 0 16 -74 79 -135 114 -112 66 -253 86 -375 53z"/>
<path d="M2570 2966 c0 -2 8 -10 18 -17 15 -13 16 -12 3 4 -13 16 -21 21 -21
13z"/>
<path d="M2630 2956 c0 -4 13 -24 29 -44 49 -61 102 -180 122 -271 l19 -86 -5
63 c-5 72 -43 173 -90 247 -35 54 -75 103 -75 91z"/>
<path d="M3037 2923 c-11 -10 -8 -52 4 -76 14 -27 50 -67 60 -67 4 0 -6 13
-22 29 -27 28 -33 46 -31 99 1 23 -1 26 -11 15z"/>
<path d="M2481 2553 c0 -34 -3 -70 -6 -80 -3 -10 1 -4 9 13 11 23 13 44 7 80
l-9 49 -1 -62z"/>
<path d="M1371 2290 c-69 -25 -115 -60 -145 -113 -35 -60 -41 -105 -22 -169
37 -129 191 -201 314 -148 61 26 92 61 92 101 0 44 -17 43 -24 -2 -4 -28 -10
-38 -19 -33 -6 4 -9 4 -5 -1 4 -4 3 -14 -3 -22 -14 -16 -33 -18 -23 -1 4 7 3
8 -5 4 -6 -4 -9 -11 -6 -15 7 -13 -42 -31 -84 -31 -84 0 -170 50 -205 119 -21
39 -31 101 -17 101 6 0 11 -10 12 -22 0 -13 7 1 15 31 20 73 53 114 119 146
48 24 64 27 128 23 63 -3 82 -8 128 -37 l54 -33 -30 33 -30 33 40 -29 c50 -37
68 -57 105 -120 35 -59 39 -54 8 13 -34 73 -123 157 -188 176 -71 21 -143 20
-209 -4z"/>
<path d="M2850 2094 l-25 -15 32 6 c48 9 107 -25 126 -73 9 -22 13 -49 10 -61
-3 -12 -1 -21 6 -21 5 0 8 -7 5 -15 -4 -8 -11 -12 -17 -8 -6 4 -8 0 -4 -10 8
-21 -18 -49 -84 -86 -42 -23 -69 -31 -110 -32 -51 -1 -52 -2 -19 -9 38 -9 106
2 149 25 65 35 120 117 121 180 0 91 -115 164 -190 119z m140 -44 c25 -24 30
-37 29 -72 l-2 -43 -6 43 c-5 26 -18 53 -36 72 -37 39 -25 39 15 0z"/>
<path d="M1792 2025 c0 -16 2 -22 5 -12 2 9 2 23 0 30 -3 6 -5 -1 -5 -18z"/>
<path d="M1354 7647 c3 -10 6 -25 6 -33 0 -8 5 -14 11 -14 12 0 2 40 -14 55
-7 7 -8 4 -3 -8z"/>
<path d="M1596 7593 c5 -44 2 -49 -49 -88 -37 -28 -38 -29 -35 -89 l3 -61 54
-27 c30 -15 63 -36 74 -45 16 -14 19 -15 15 -3 -2 8 -20 23 -39 33 l-34 19 32
-4 c44 -6 31 10 -15 17 -72 12 -80 19 -80 69 0 40 5 51 44 90 35 36 44 52 44
80 0 19 -4 37 -9 40 -5 4 -7 -11 -5 -31z"/>
<path d="M1247 7594 c-3 -3 12 -29 34 -56 21 -27 39 -55 39 -61 0 -8 3 -8 11
0 8 8 0 26 -31 67 -46 61 -44 59 -53 50z"/>
<path d="M1457 7593 c-3 -5 -1 -26 3 -48 l8 -40 1 48 c1 45 -2 56 -12 40z"/>
<path d="M1374 7568 c3 -13 6 -29 6 -35 0 -7 9 -13 20 -13 19 0 19 1 -1 35
-24 40 -34 45 -25 13z"/>
<path d="M1525 7579 c-11 -17 1 -21 15 -4 8 9 8 15 2 15 -6 0 -14 -5 -17 -11z"/>
<path d="M1176 7502 c-2 -4 24 -23 60 -40 35 -18 64 -37 65 -44 0 -7 4 -4 9 7
13 29 12 35 -4 29 -8 -3 -39 9 -69 26 -30 17 -58 27 -61 22z"/>
<path d="M1697 7434 c-3 -3 -21 -10 -39 -14 -31 -7 -31 -8 -6 -9 15 -1 31 -9
37 -18 9 -17 11 -17 28 0 15 15 16 19 2 32 -8 9 -18 13 -22 9z"/>
<path d="M1548 7413 c6 -2 18 -2 25 0 6 3 1 5 -13 5 -14 0 -19 -2 -12 -5z"/>
<path d="M1213 7382 c-45 -2 -73 -7 -73 -14 0 -7 24 -9 76 -5 68 5 75 4 70
-11 -5 -13 -2 -12 10 3 15 19 16 19 29 1 13 -17 9 -22 -35 -57 -59 -47 -65
-56 -49 -75 11 -13 14 -11 24 13 7 15 28 43 48 61 30 29 38 32 56 22 16 -8 20
-17 16 -31 -9 -27 8 -24 20 4 6 12 20 23 32 25 17 3 26 -4 37 -30 8 -18 26
-60 41 -92 14 -32 28 -57 31 -54 7 7 -46 157 -57 164 -5 3 -9 14 -9 26 0 15
-3 18 -12 10 -7 -6 -29 -13 -49 -17 -31 -6 -41 -2 -70 22 -43 37 -48 39 -136
35z"/>
<path d="M1392 7230 c0 -19 2 -27 5 -17 2 9 2 25 0 35 -3 9 -5 1 -5 -18z"/>
<path d="M1550 7242 c0 -15 24 -32 43 -32 17 0 17 2 -6 20 -27 21 -37 25 -37
12z"/>
<path d="M1398 7150 c5 -36 16 -45 39 -31 16 9 16 10 -4 11 -18 0 -23 6 -23
25 0 14 -4 25 -8 25 -5 0 -7 -14 -4 -30z"/>
<path d="M4378 6797 c-143 -41 -310 -202 -405 -392 -47 -92 -74 -191 -80 -291
-5 -76 -2 -103 16 -163 59 -193 251 -292 449 -232 150 45 305 190 390 363 59
120 72 175 72 302 0 181 -70 325 -190 390 -62 34 -176 44 -252 23z m-158 -120
c0 -2 -10 -12 -22 -23 l-23 -19 19 23 c18 21 26 27 26 19z m-60 -60 c0 -2 -12
-14 -27 -28 l-28 -24 24 28 c23 25 31 32 31 24z m-50 -60 c0 -2 -10 -12 -22
-23 l-23 -19 19 23 c18 21 26 27 26 19z m466 -93 c65 -31 121 -96 135 -158 14
-66 7 -110 -29 -165 -32 -50 -124 -101 -182 -101 -140 0 -260 109 -260 236 0
90 70 184 152 205 49 12 140 4 184 -17z"/>
<path d="M4442 6443 c-21 -4 -21 -6 -7 -26 20 -28 19 -77 -1 -106 -14 -20 -23
-22 -70 -19 -53 3 -54 3 -54 -25 0 -71 59 -139 133 -152 82 -16 188 61 202
146 17 102 -97 205 -203 182z"/>
<path d="M4347 6123 c18 -18 38 -33 45 -33 7 0 4 6 -7 12 -11 6 -31 20 -45 32
-14 11 -11 6 7 -11z"/>
<path d="M5645 6796 c-167 -53 -256 -200 -256 -426 0 -104 17 -185 57 -267 73
-151 214 -300 342 -361 73 -35 82 -37 177 -37 93 0 104 2 160 32 156 82 226
240 192 433 -37 216 -194 465 -358 570 -97 63 -223 85 -314 56z m150 -317 c65
-18 125 -66 147 -117 29 -66 20 -170 -20 -227 -56 -80 -175 -116 -268 -80 -35
13 -55 31 -88 76 -24 32 -47 55 -51 51 -5 -4 -5 1 -2 11 4 9 2 17 -3 17 -6 0
-10 28 -10 63 0 53 5 71 29 109 57 90 158 127 266 97z"/>
<path d="M5680 6439 c-28 -9 -31 -12 -18 -20 22 -12 31 -57 18 -89 -15 -37
-50 -52 -92 -39 -18 5 -35 9 -37 9 -2 0 -1 -21 3 -46 11 -85 70 -136 156 -136
56 0 97 19 138 67 51 58 54 119 9 185 -45 66 -106 90 -177 69z"/>
<path d="M5015 6226 c-33 -10 -60 -26 -83 -51 -31 -34 -34 -42 -29 -82 6 -55
45 -99 102 -115 63 -18 65 -22 65 -112 0 -60 -5 -91 -19 -119 -10 -20 -14 -34
-9 -31 6 4 5 -3 -1 -15 -6 -11 -21 -26 -32 -32 -17 -9 -20 -8 -14 3 4 8 2 8
-7 -2 -19 -21 -35 -25 -108 -25 -53 0 -74 6 -113 28 -25 15 -51 36 -57 47 -14
26 -26 25 -41 -1 -9 -18 -6 -27 28 -61 104 -109 285 -109 372 -1 l31 39 50
-48 c104 -100 239 -99 363 3 41 34 46 57 18 83 -18 17 -20 16 -33 -10 -19 -41
-71 -72 -134 -80 -97 -12 -169 18 -203 85 -20 39 -37 175 -27 209 5 14 23 26
59 36 56 16 109 51 116 76 18 69 -6 119 -75 157 -52 29 -152 37 -219 19z m95
-26 c-68 -9 -86 -16 -128 -47 -35 -26 -53 -24 -36 5 21 33 75 52 149 51 l70
-2 -55 -7z"/>
<path d="M8623 5653 c9 -2 23 -2 30 0 6 3 -1 5 -18 5 -16 0 -22 -2 -12 -5z"/>
<path d="M8215 5630 c77 -27 131 -32 144 -16 9 10 -6 14 -71 20 -46 3 -94 8
-108 11 -14 3 2 -4 35 -15z"/>
<path d="M8578 5643 c7 -3 16 -2 19 1 4 3 -2 6 -13 5 -11 0 -14 -3 -6 -6z"/>
<path d="M8510 5630 c-11 -8 -7 -9 15 -4 37 8 45 14 19 14 -10 0 -26 -5 -34
-10z"/>
<path d="M8048 5613 c7 -3 16 -2 19 1 4 3 -2 6 -13 5 -11 0 -14 -3 -6 -6z"/>
<path d="M8098 5613 c6 -2 18 -2 25 0 6 3 1 5 -13 5 -14 0 -19 -2 -12 -5z"/>
<path d="M7938 5603 c6 -2 18 -2 25 0 6 3 1 5 -13 5 -14 0 -19 -2 -12 -5z"/>
<path d="M7865 5585 c-39 -17 -21 -18 25 0 19 7 28 14 20 14 -8 0 -28 -6 -45
-14z"/>
<path d="M7765 5539 c-57 -36 -142 -122 -169 -170 -18 -33 -18 -33 15 6 59 71
138 144 179 165 38 19 49 30 32 30 -4 0 -30 -14 -57 -31z"/>
<path d="M8470 5525 c7 -9 15 -13 17 -11 7 7 -7 26 -19 26 -6 0 -6 -6 2 -15z"/>
<path d="M8740 5511 c0 -5 -16 -12 -35 -15 -19 -4 -37 -12 -41 -17 -7 -12 49
-3 79 13 18 9 23 28 7 28 -5 0 -10 -4 -10 -9z"/>
<path d="M9008 5455 c-5 -6 6 -51 65 -260 l34 -120 -20 -17 c-21 -16 -20 -16
14 -15 l35 1 -28 110 c-31 120 -87 306 -92 306 -1 0 -5 -2 -8 -5z"/>
<path d="M8028 5402 c5 -73 -9 -82 -173 -117 -43 -9 -55 -15 -42 -20 44 -18
180 26 259 86 44 33 60 39 100 39 42 0 48 3 48 21 0 13 -5 19 -12 16 -7 -2
-38 -12 -69 -21 -31 -8 -62 -23 -69 -31 -21 -26 -30 -17 -30 30 0 25 -3 45 -7
45 -5 0 -6 -22 -5 -48z"/>
<path d="M8817 5433 c-58 -3 -67 -6 -63 -21 6 -20 24 -93 36 -142 5 -19 11
-54 15 -77 6 -36 10 -43 28 -42 12 0 16 3 10 6 -7 2 -13 14 -13 25 0 11 -12
63 -26 115 -14 52 -24 96 -22 98 2 2 38 5 81 7 42 2 77 6 77 11 0 7 -49 30
-53 25 -1 -1 -33 -3 -70 -5z"/>
<path d="M7685 5410 c-3 -5 -1 -10 4 -10 6 0 11 5 11 10 0 6 -2 10 -4 10 -3 0
-8 -4 -11 -10z"/>
<path d="M7922 5393 c-6 -3 -9 -9 -6 -15 5 -8 -9 -9 -45 -4 -36 5 -51 4 -46
-4 10 -15 100 -12 114 4 13 15 4 26 -17 19z"/>
<path d="M7551 5279 c-6 -18 -11 -39 -10 -48 1 -9 7 4 15 28 16 51 12 68 -5
20z"/>
<path d="M8123 5291 c-17 -27 -93 -61 -136 -61 -20 0 -37 -4 -37 -10 0 -13 89
-13 128 1 17 6 38 21 47 35 8 13 22 24 31 24 19 0 13 24 -7 28 -8 1 -19 -6
-26 -17z"/>
<path d="M8268 5288 c-3 -20 -8 -23 -45 -21 -24 1 -43 -2 -43 -7 0 -11 59 -23
91 -18 28 4 37 39 15 57 -12 10 -15 8 -18 -11z"/>
<path d="M8730 5250 c0 -5 5 -10 11 -10 5 0 7 5 4 10 -3 6 -8 10 -11 10 -2 0
-4 -4 -4 -10z"/>
<path d="M7532 5180 c0 -14 2 -19 5 -12 2 6 2 18 0 25 -3 6 -5 1 -5 -13z"/>
<path d="M7818 5193 c-17 -3 -28 -11 -28 -20 0 -12 7 -14 38 -9 55 10 72 16
72 27 0 9 -30 10 -82 2z"/>
<path d="M8170 5176 c-41 -6 -73 -15 -71 -21 1 -5 8 -8 15 -6 6 2 37 6 69 9
l59 5 -2 -34 c-3 -55 -1 -79 9 -79 4 0 11 21 14 48 4 26 9 57 13 70 7 25 8 25
-106 8z"/>
<path d="M7952 5133 c-5 -10 -17 -40 -26 -68 -9 -27 -43 -93 -76 -145 -61 -96
-69 -115 -47 -108 24 8 88 104 133 198 25 52 55 105 67 118 l20 22 -31 0 c-20
0 -35 -6 -40 -17z"/>
<path d="M9011 5120 c0 -14 6 -43 14 -65 18 -51 19 -25 1 40 -9 32 -14 41 -15
25z"/>
<path d="M8120 5085 c0 -25 31 -78 40 -69 4 5 5 26 3 47 -4 28 -10 37 -24 37
-11 0 -19 -7 -19 -15z"/>
<path d="M7827 5083 c-11 -3 -16 -10 -13 -20 3 -8 6 -17 6 -19 0 -13 20 -1 34
21 17 26 13 28 -27 18z"/>
<path d="M8001 4968 c-30 -63 -52 -95 -72 -107 -33 -18 -36 -29 -13 -38 22 -8
77 48 105 110 30 67 28 65 45 43 8 -11 14 -16 14 -12 0 19 -23 96 -29 95 -3 0
-26 -41 -50 -91z"/>
<path d="M8190 4952 c0 -10 -23 -44 -51 -76 -35 -39 -48 -61 -42 -67 13 -13
73 38 103 86 17 27 19 38 10 55 -13 25 -20 26 -20 2z"/>
<path d="M8338 4899 c-10 -11 -30 -19 -45 -19 l-28 -1 24 -19 c28 -24 41 -25
41 -5 0 9 9 15 25 15 28 0 31 9 13 32 -12 14 -15 13 -30 -3z"/>
<path d="M8440 4798 c-19 -24 -26 -37 -17 -29 19 15 61 71 54 71 -2 0 -19 -19
-37 -42z"/>
<path d="M8138 4613 c7 -3 16 -2 19 1 4 3 -2 6 -13 5 -11 0 -14 -3 -6 -6z"/>
<path d="M8008 4603 c23 -2 59 -2 80 0 20 2 1 4 -43 4 -44 0 -61 -2 -37 -4z"/>
<path d="M8966 6604 c-5 -14 -4 -15 9 -4 17 14 19 20 6 20 -5 0 -12 -7 -15
-16z"/>
<path d="M8985 6580 c-4 -6 -3 -16 2 -23 51 -67 87 -106 94 -101 6 3 -4 21
-20 40 -17 19 -38 48 -46 64 -17 33 -21 35 -30 20z"/>
<path d="M9340 6571 c0 -6 -6 -11 -14 -11 -7 0 -32 -20 -54 -44 -37 -41 -40
-46 -35 -90 4 -29 1 -56 -7 -71 -28 -52 -112 -56 -150 -8 -19 25 -20 25 -90
12 -72 -13 -76 -15 -61 -38 7 -11 17 -9 56 8 57 25 83 27 92 4 6 -16 -9 -33
-83 -90 -22 -17 -26 -25 -17 -34 8 -8 23 2 60 40 30 31 58 51 71 51 26 0 26
-3 7 -66 -16 -55 -20 -114 -6 -114 5 0 12 26 15 58 14 115 16 122 43 122 18 0
31 -12 55 -50 39 -64 49 -58 13 8 -39 73 -16 97 45 46 39 -33 65 -81 47 -87
-6 -2 -9 -8 -5 -12 11 -12 28 5 28 30 0 16 -16 37 -50 65 -27 23 -50 45 -50
49 0 5 24 2 53 -6 28 -7 68 -12 87 -11 29 3 23 5 -34 16 -84 16 -106 27 -106
52 0 15 12 21 58 30 31 6 73 15 92 19 30 8 31 9 9 10 -29 1 -113 -14 -141 -24
-14 -6 -18 -2 -18 18 0 26 70 97 97 97 15 0 17 16 3 25 -5 3 -10 1 -10 -4z"/>
<path d="M8921 6472 c-21 -7 -11 -32 12 -32 13 0 46 -7 72 -15 27 -8 50 -13
52 -12 5 6 -126 62 -136 59z"/>
<path d="M9215 6199 c8 -47 18 -65 45 -79 14 -7 13 0 -6 38 -13 26 -24 52 -24
59 0 6 -5 15 -11 19 -8 5 -9 -6 -4 -37z"/>
<path d="M9150 6141 c-6 -12 -7 -21 -1 -21 10 0 24 30 17 37 -2 3 -9 -5 -16
-16z"/>
<path d="M983 6550 c-18 -10 -39 -33 -48 -49 -16 -32 -20 -108 -6 -129 5 -8 6
7 3 37 -3 40 0 57 18 85 28 46 51 59 120 67 l55 6 -55 1 c-39 2 -64 -4 -87
-18z"/>
<path d="M7070 5635 c-15 -18 -10 -45 11 -58 20 -12 69 18 69 42 -1 14 -2 14
-11 -1 -12 -21 -42 -23 -58 -5 -8 10 -7 17 1 25 7 7 9 12 6 12 -3 0 -11 -7
-18 -15z"/>
<path d="M6894 5528 c-11 -13 -12 -17 -3 -11 8 7 26 17 40 22 22 9 22 10 3 10
-11 1 -29 -9 -40 -21z"/>
<path d="M3280 5470 c0 -5 7 -7 15 -4 8 4 15 8 15 10 0 2 -7 4 -15 4 -8 0 -15
-4 -15 -10z"/>
<path d="M7254 5399 c-35 -10 -67 -39 -42 -39 7 0 22 6 33 14 11 7 29 15 40
18 11 2 16 6 10 9 -5 3 -24 2 -41 -2z"/>
<path d="M3110 5110 c6 -11 13 -20 16 -20 2 0 0 9 -6 20 -6 11 -13 20 -16 20
-2 0 0 -9 6 -20z"/>
<path d="M3020 5097 c0 -4 10 -25 21 -47 19 -35 20 -43 8 -54 -25 -23 -80 -37
-95 -25 -10 9 -14 9 -14 0 0 -6 5 -11 11 -11 5 0 8 -4 5 -8 -8 -13 56 -2 92
16 34 18 39 31 21 65 -15 27 -49 72 -49 64z"/>
<path d="M3180 5090 c-8 -5 -12 -11 -9 -14 2 -3 11 -1 19 4 8 5 12 11 9 14 -2
3 -11 1 -19 -4z"/>
<path d="M3140 4963 c0 -5 7 -26 14 -48 14 -41 31 -52 55 -36 11 7 8 17 -18
50 -30 38 -51 52 -51 34z"/>
<path d="M5148 5083 c7 -3 16 -2 19 1 4 3 -2 6 -13 5 -11 0 -14 -3 -6 -6z"/>
<path d="M7103 3953 c9 -2 23 -2 30 0 6 3 -1 5 -18 5 -16 0 -22 -2 -12 -5z"/>
<path d="M7258 3953 c12 -2 30 -2 40 0 9 3 -1 5 -23 4 -22 0 -30 -2 -17 -4z"/>
<path d="M7100 3914 c-91 -19 -216 -83 -272 -140 -26 -26 -45 -51 -42 -56 3
-4 23 11 45 34 22 24 45 42 50 41 5 -2 9 4 9 13 0 10 6 14 14 11 8 -3 17 1 20
9 3 9 10 12 16 9 5 -3 10 -2 10 3 0 13 96 56 108 48 6 -3 13 -2 16 3 8 13 78
23 160 24 63 0 66 1 31 8 -55 11 -90 10 -165 -7z"/>
<path d="M6775 3778 c-56 -63 -129 -194 -140 -253 -3 -16 5 -2 18 32 32 82 81
162 140 229 27 30 46 54 44 54 -3 0 -31 -28 -62 -62z"/>
<path d="M6753 3683 c-9 -16 -21 -34 -26 -40 -6 -9 -5 -13 3 -13 6 0 14 9 17
20 3 11 13 20 22 21 11 0 12 2 3 6 -10 4 -10 8 -1 19 6 8 9 14 5 14 -3 0 -13
-12 -23 -27z"/>
<path d="M7335 3650 c-36 -40 -82 -62 -104 -51 -29 16 -39 13 -17 -4 11 -8 33
-15 48 -15 36 0 104 34 117 59 19 35 -15 43 -44 11z"/>
<path d="M7059 3622 c-9 -15 -30 -35 -48 -44 -45 -21 -22 -32 27 -13 39 16 63
48 55 73 -7 19 -17 14 -34 -16z"/>
<path d="M7525 3564 c7 -25 12 -25 -358 -50 -139 -10 -256 -21 -261 -25 -19
-17 73 -20 241 -9 98 7 228 15 288 19 100 5 110 8 113 26 1 11 -4 29 -13 40
-16 20 -16 20 -10 -1z"/>
<path d="M6622 3470 c0 -14 2 -19 5 -12 2 6 2 18 0 25 -3 6 -5 1 -5 -13z"/>
<path d="M6613 3395 c0 -27 2 -38 4 -22 2 15 2 37 0 50 -2 12 -4 0 -4 -28z"/>
<path d="M7445 3429 c-136 -14 -452 -39 -495 -39 -28 0 -39 -4 -34 -11 5 -8
45 -10 130 -7 113 5 124 3 124 -12 0 -17 19 -30 41 -30 5 0 9 11 9 25 0 24 3
25 58 26 31 1 107 4 167 8 101 5 110 8 110 26 0 24 -8 25 -110 14z m32 -25
c-3 -3 -12 -4 -19 -1 -8 3 -5 6 6 6 11 1 17 -2 13 -5z"/>
<path d="M7524 3310 c9 -51 10 -191 2 -217 -8 -26 -53 -43 -115 -43 -78 0
-118 11 -130 34 -10 20 -11 20 -5 -4 11 -45 49 -74 96 -74 71 0 158 8 158 15
0 4 8 6 18 5 15 -1 17 12 17 136 0 131 -1 138 -24 160 l-23 23 6 -35z"/>
<path d="M7322 3293 c3 -15 12 -17 63 -14 66 3 70 5 60 20 -3 6 -33 11 -66 11
-52 0 -60 -2 -57 -17z"/>
<path d="M6945 3262 c16 -15 32 -17 83 -14 45 3 62 8 62 18 0 11 -18 14 -82
14 -80 0 -82 -1 -63 -18z"/>
<path d="M7174 3153 c9 -136 8 -137 -104 -131 -43 3 -86 10 -94 18 -21 17 -20
0 2 -26 29 -35 62 -47 134 -48 105 -2 108 5 90 208 -5 54 -11 81 -21 84 -11 4
-13 -14 -7 -105z"/>
<path d="M7388 3202 c-56 -3 -56 -3 -49 -30 7 -24 13 -27 54 -30 50 -3 62 7
55 45 -3 15 -11 18 -60 15z"/>
<path d="M7010 3158 c0 -16 12 -33 25 -34 6 -1 23 -4 38 -8 26 -6 28 -5 25 21
-3 25 -7 28 -45 31 -30 2 -43 -1 -43 -10z"/>
<path d="M7445 2805 c-25 -12 -26 -14 -5 -9 14 4 29 10 35 15 12 12 5 11 -30
-6z"/>
<path d="M7318 2763 c6 -2 18 -2 25 0 6 3 1 5 -13 5 -14 0 -19 -2 -12 -5z"/>
<path d="M7138 2753 c12 -2 32 -2 45 0 12 2 2 4 -23 4 -25 0 -35 -2 -22 -4z"/>
<path d="M7238 2753 c12 -2 32 -2 45 0 12 2 2 4 -23 4 -25 0 -35 -2 -22 -4z"/>
<path d="M5078 3794 l-3 -69 -75 0 c-75 0 -103 -11 -65 -25 11 -4 90 -7 175
-6 131 1 155 3 155 16 0 12 -16 15 -80 15 l-80 0 -5 62 c-7 85 -18 89 -22 7z"/>
<path d="M4040 3760 c-13 -8 -12 -10 3 -10 9 0 17 5 17 10 0 12 -1 12 -20 0z"/>
<path d="M4920 3531 c0 -22 19 -31 65 -31 21 0 35 6 39 16 10 26 -3 34 -55 34
-41 0 -49 -3 -49 -19z"/>
<path d="M5156 3541 c-4 -5 -3 -17 0 -26 5 -12 17 -15 53 -13 39 3 46 6 49 26
3 20 0 22 -47 22 -27 0 -52 -4 -55 -9z m67 -28 c-7 -2 -21 -2 -30 0 -10 3 -4
5 12 5 17 0 24 -2 18 -5z"/>
<path d="M9203 3219 c-50 -25 -83 -73 -82 -120 1 -35 3 -33 13 14 4 15 23 45
42 67 34 37 40 40 89 40 47 0 57 -4 86 -32 25 -25 29 -27 20 -10 -16 29 -69
62 -101 62 -14 0 -44 -9 -67 -21z"/>
<path d="M9270 3040 c-9 -6 -10 -10 -3 -10 6 0 15 5 18 10 8 12 4 12 -15 0z"/>
<path d="M8695 3061 c3 -18 5 -50 5 -70 1 -35 1 -35 20 18 11 30 17 57 14 60
-2 3 -8 -6 -11 -19 -6 -23 -7 -23 -20 10 l-13 35 5 -34z"/>
<path d="M8790 2983 c-40 -41 -41 -43 -9 -17 31 25 65 64 56 64 -1 0 -23 -21
-47 -47z"/>
<path d="M8810 2920 c-11 -8 -7 -9 15 -4 37 8 45 14 19 14 -10 0 -26 -5 -34
-10z"/>
<path d="M8903 2875 c-10 -10 -9 -16 2 -25 11 -9 16 -7 24 9 6 11 11 22 11 25
0 11 -25 5 -37 -9z"/>
<path d="M8733 2858 c-6 -10 118 -10 133 0 7 4 -19 7 -58 7 -38 0 -72 -3 -75
-7z"/>
<path d="M8739 2776 c12 -16 21 -35 21 -42 0 -7 5 -16 10 -19 23 -14 8 27 -21
57 -28 29 -29 30 -10 4z"/>
<path d="M8848 2773 c-3 -12 -16 -23 -29 -26 -22 -4 -21 -4 4 -6 28 -1 43 17
35 41 -3 7 -7 3 -10 -9z"/>
<path d="M8486 2741 c-33 -36 -13 -48 21 -13 25 25 28 32 14 32 -10 0 -26 -9
-35 -19z"/>
<path d="M8696 2685 c7 -49 11 -55 32 -54 15 1 15 2 0 6 -10 2 -18 14 -19 26
0 12 -5 31 -10 42 -7 14 -8 9 -3 -20z"/>
<path d="M8580 2670 c-8 -5 -12 -12 -9 -15 4 -3 12 1 19 10 14 17 11 19 -10 5z"/>
<path d="M4214 2377 c-37 -98 -110 -334 -105 -339 8 -9 273 -70 278 -64 2 2
11 28 18 57 15 57 10 69 -28 69 -10 0 -47 7 -82 16 -76 19 -76 17 -45 155 11
50 18 94 15 98 -8 15 -46 20 -51 8z"/>
<path d="M6350 2354 c-25 -13 -84 -37 -132 -55 -49 -18 -88 -37 -88 -45 0 -13
58 -175 65 -182 9 -9 145 51 145 64 0 7 -9 37 -20 66 -11 29 -20 54 -20 55 0
9 64 33 71 26 4 -4 24 -51 44 -103 l37 -95 -23 -15 c-31 -20 -183 -80 -295
-115 -84 -26 -90 -30 -86 -52 2 -13 8 -26 13 -28 16 -11 275 88 411 156 66 33
77 42 69 57 -27 52 -131 275 -131 283 0 12 -8 10 -60 -17z"/>
<path d="M6010 2120 c-25 -10 -98 -28 -163 -41 l-119 -23 7 -35 c4 -20 10 -40
14 -44 4 -4 83 11 175 34 l166 42 -6 36 c-11 59 -8 58 -74 31z"/>
<path d="M3721 2063 c-7 -14 -8 -30 -4 -34 18 -18 410 -165 418 -157 2 2 6 15
10 29 5 22 3 27 -17 32 -58 15 -182 63 -277 108 -57 27 -107 49 -111 49 -4 0
-12 -12 -19 -27z"/>
<path d="M4198 1533 c7 -3 16 -2 19 1 4 3 -2 6 -13 5 -11 0 -14 -3 -6 -6z"/>
<path d="M4271 1516 c8 -9 200 -46 234 -45 17 0 -17 9 -73 19 -57 10 -118 22
-135 26 -18 3 -29 4 -26 0z"/>
<path d="M4553 1463 c9 -2 25 -2 35 0 9 3 1 5 -18 5 -19 0 -27 -2 -17 -5z"/>
<path d="M5508 1453 c6 -2 18 -2 25 0 6 3 1 5 -13 5 -14 0 -19 -2 -12 -5z"/>
<path d="M4758 1443 c12 -2 32 -2 45 0 12 2 2 4 -23 4 -25 0 -35 -2 -22 -4z"/>
<path d="M4883 1433 c26 -2 67 -2 90 0 23 2 2 3 -48 3 -49 0 -68 -1 -42 -3z"/>
</g>
</svg>
